<?xml version="1.0" standalone="no"?>
<!DOCTYPE svg PUBLIC "-//W3C//DTD SVG 20010904//EN"
 "http://www.w3.org/TR/2001/REC-SVG-20010904/DTD/svg10.dtd">
<svg version="1.0" xmlns="http://www.w3.org/2000/svg"
 width="1697.000000pt" height="1062.000000pt" viewBox="0 0 1697.000000 1062.000000"
 preserveAspectRatio="xMidYMid meet">

<g transform="translate(0.000000,1062.000000) scale(0.100000,-0.100000)"
fill="#000000" stroke="none">
<path d="M16400 10479 c-114 -30 -187 -61 -203 -86 -4 -7 -14 -13 -22 -13 -21
0 -105 -87 -105 -109 0 -11 -4 -22 -9 -26 -12 -7 -123 -237 -140 -288 -7 -20
-17 -37 -22 -37 -5 0 -9 -9 -9 -21 0 -11 -9 -48 -20 -82 -50 -157 -69 -228
-80 -297 -7 -41 -21 -100 -31 -131 -11 -30 -19 -69 -19 -86 0 -17 -6 -46 -14
-64 -7 -19 -14 -70 -15 -114 -1 -80 -7 -115 -37 -235 -9 -36 -19 -83 -21 -105
-3 -22 -12 -47 -20 -57 -8 -9 -18 -40 -22 -70 -4 -29 -11 -60 -15 -67 -5 -8
-17 -52 -27 -100 -35 -167 -71 -317 -99 -411 -16 -52 -38 -140 -50 -195 -12
-55 -27 -120 -35 -145 -7 -25 -18 -76 -25 -115 -7 -38 -19 -95 -26 -126 -8
-31 -14 -74 -14 -96 0 -21 -14 -74 -30 -116 -17 -43 -34 -113 -40 -155 -5 -42
-16 -133 -25 -202 -8 -69 -21 -147 -29 -175 -7 -27 -14 -63 -14 -80 -1 -16
-11 -57 -21 -90 -11 -33 -24 -89 -30 -125 -5 -36 -17 -99 -25 -140 -9 -41 -20
-97 -26 -125 -27 -138 -47 -225 -53 -231 -4 -4 -7 -17 -7 -28 0 -12 -9 -48
-19 -81 -11 -33 -27 -91 -36 -130 -9 -38 -23 -97 -31 -130 -9 -33 -17 -71 -19
-85 -6 -40 -23 -111 -39 -165 -9 -27 -16 -63 -16 -80 0 -27 -7 -56 -54 -225
-9 -30 -16 -64 -16 -75 0 -11 -12 -46 -27 -78 -21 -43 -34 -59 -53 -63 -14 -2
-38 -9 -55 -14 -16 -5 -64 -12 -105 -16 -83 -7 -167 -39 -176 -67 -3 -10 -16
-24 -29 -33 -23 -15 -72 -108 -110 -206 -21 -56 -33 -61 -42 -17 -3 18 -18 40
-36 52 -16 12 -38 41 -48 64 -20 47 -94 103 -136 103 -31 0 -72 -22 -102 -54
-21 -23 -33 -26 -86 -26 -45 0 -69 -5 -86 -18 -13 -10 -32 -21 -41 -25 -10 -3
-18 -13 -18 -21 0 -30 -20 -26 -33 7 -18 41 -102 129 -147 152 -75 39 -293 3
-357 -59 -12 -11 -37 -32 -54 -46 -32 -25 -95 -82 -181 -165 -51 -48 -73 -56
-82 -27 -15 46 -204 110 -286 96 -123 -20 -228 -46 -260 -65 -8 -5 -23 -12
-33 -16 -10 -3 -37 -16 -60 -28 -23 -13 -66 -35 -96 -49 -54 -26 -55 -26 -75
-7 -12 10 -50 33 -86 50 -55 25 -75 30 -127 27 -34 -1 -69 -9 -77 -16 -9 -7
-23 -9 -33 -6 -16 6 -249 -101 -297 -137 -17 -12 -28 -8 -110 47 -103 68 -146
86 -231 97 -140 17 -314 -46 -404 -148 -28 -31 -51 -61 -51 -65 0 -4 -5 -8
-11 -8 -10 0 -9 10 12 81 8 26 8 51 0 90 -10 44 -19 60 -53 88 -57 48 -151 85
-218 86 -30 0 -59 3 -65 6 -17 9 -77 10 -89 1 -6 -4 -38 -18 -71 -31 -33 -12
-72 -29 -87 -37 -45 -24 -66 -18 -89 28 -25 49 -63 89 -105 111 -50 26 -144
47 -168 37 -11 -5 -46 -12 -76 -15 -44 -5 -67 -14 -108 -45 -29 -22 -57 -40
-63 -40 -15 0 -129 -90 -136 -106 -3 -8 -11 -14 -17 -14 -9 0 -13 40 -15 151
-1 83 -5 159 -10 168 -5 9 -12 66 -15 126 -10 190 -38 314 -84 374 -15 20 -36
48 -45 63 -9 15 -34 45 -54 66 -21 22 -63 68 -93 103 -168 193 -434 405 -610
484 -36 16 -77 37 -92 47 -14 10 -31 18 -36 18 -6 0 -23 6 -39 14 -57 28 -104
46 -123 46 -10 0 -22 5 -25 10 -3 6 -15 10 -26 10 -10 0 -19 5 -19 11 0 6 -9
9 -19 6 -11 -2 -46 2 -78 9 -117 29 -341 21 -492 -16 -64 -16 -73 -10 -57 37
7 21 16 56 20 78 4 22 16 63 26 91 25 69 77 305 90 414 13 103 30 201 45 250
7 25 18 88 24 140 7 52 20 165 31 250 73 592 83 750 61 1000 -6 69 -15 186
-20 260 -9 135 -43 447 -60 550 -5 30 -12 84 -16 120 -3 36 -10 88 -15 115
-54 273 -73 361 -85 379 -8 12 -24 49 -35 81 -11 32 -27 69 -35 82 -8 12 -15
27 -15 34 0 6 -17 32 -38 58 -21 25 -43 57 -49 71 -17 39 -83 110 -101 110 -9
0 -36 7 -60 15 -50 18 -158 12 -206 -11 -16 -8 -34 -14 -40 -14 -64 -2 -190
-283 -210 -468 -3 -29 -12 -67 -20 -83 -19 -38 -40 -173 -32 -210 3 -16 -2
-48 -10 -71 -9 -24 -16 -69 -16 -101 -1 -32 -5 -60 -9 -62 -4 -3 -10 -74 -13
-157 -4 -84 -9 -209 -12 -278 -3 -69 -7 -163 -9 -210 -2 -47 -8 -155 -13 -240
-6 -85 -11 -225 -12 -310 -1 -159 -7 -297 -14 -309 -3 -5 -13 -163 -21 -366
-2 -33 -5 -73 -8 -90 -3 -16 -8 -113 -11 -215 -4 -102 -11 -228 -16 -280 -13
-133 -20 -253 -21 -405 -2 -138 -24 -499 -32 -512 -9 -15 -28 -358 -32 -578
-6 -330 -12 -399 -46 -470 -16 -33 -63 -107 -104 -165 -41 -58 -87 -123 -102
-145 -15 -22 -55 -74 -88 -116 -33 -42 -69 -92 -80 -110 -81 -135 -115 -201
-115 -220 0 -9 -7 -33 -15 -52 -16 -40 -26 -137 -18 -179 3 -15 30 -53 59 -84
44 -46 66 -60 126 -81 110 -38 199 -19 286 64 31 29 60 53 64 53 8 0 2 -45
-18 -150 -10 -47 -17 -156 -20 -295 -4 -214 -10 -289 -38 -465 -32 -198 -49
-277 -64 -310 -19 -39 -44 -45 -137 -29 -27 5 -106 15 -175 24 -130 15 -257
39 -300 56 -14 5 -39 11 -56 13 -18 2 -76 20 -130 39 -112 39 -231 77 -319
102 -33 9 -74 20 -91 26 -41 12 -81 11 -129 -4 -87 -27 -132 -65 -180 -152
-38 -69 -105 -259 -105 -298 0 -34 15 -57 37 -57 29 0 125 -55 165 -94 109
-106 258 -294 258 -325 0 -16 42 -75 77 -108 13 -12 23 -31 23 -41 0 -10 9
-27 20 -37 10 -9 27 -38 37 -64 9 -25 30 -71 45 -101 15 -30 28 -59 28 -63 0
-5 8 -21 18 -35 10 -15 24 -47 32 -72 7 -25 16 -49 20 -55 3 -5 12 -28 19 -50
11 -36 26 -73 92 -235 10 -25 21 -60 25 -79 3 -18 19 -65 35 -103 16 -39 26
-75 23 -80 -3 -5 1 -17 9 -26 8 -9 17 -33 21 -53 3 -19 15 -53 26 -74 11 -22
20 -51 20 -66 0 -32 19 -89 30 -89 11 0 46 -112 54 -169 8 -59 65 -142 118
-174 24 -14 54 -37 67 -51 23 -24 31 -26 113 -26 l89 0 17 31 c62 112 79 135
116 152 31 15 44 16 69 7 72 -25 108 58 182 420 13 63 40 192 60 285 20 94 52
244 71 335 19 91 48 226 64 300 29 137 45 195 62 217 5 7 28 11 51 11 53 -2
278 11 286 17 4 2 67 6 141 9 74 4 151 9 170 12 52 9 206 61 238 80 56 35 101
64 246 160 82 55 164 108 182 119 77 47 484 430 484 455 0 6 5 10 11 10 7 0 9
-9 6 -22 -8 -29 10 -97 31 -123 9 -11 31 -29 47 -40 42 -27 168 -27 300 2 55
12 122 27 149 33 27 5 60 17 72 25 13 8 28 15 33 15 12 0 204 94 254 124 21
13 53 38 72 56 l35 34 24 -23 c14 -13 32 -38 41 -57 8 -18 35 -49 58 -67 115
-94 362 -69 633 64 103 50 128 57 140 38 22 -36 180 -72 309 -71 133 1 260 35
405 108 l72 36 24 -23 c13 -12 24 -26 24 -31 0 -10 41 -47 99 -88 46 -33 137
-75 181 -83 80 -15 267 39 362 105 34 24 46 23 90 -7 69 -47 277 -55 423 -16
124 32 238 72 264 93 13 10 32 18 42 18 10 0 21 4 24 10 3 5 26 22 51 36 l44
26 38 -22 c63 -38 138 -56 270 -67 81 -6 161 13 206 48 13 10 29 19 35 19 6 0
26 14 46 31 l36 32 142 -7 c140 -7 340 6 362 23 9 8 70 25 177 52 20 5 53 18
73 30 20 12 38 20 40 17 2 -2 0 -21 -5 -43 -5 -22 -13 -88 -19 -147 -6 -58
-22 -148 -35 -200 -14 -51 -32 -140 -41 -198 -9 -58 -27 -148 -40 -200 -25
-99 -55 -286 -55 -338 0 -16 -8 -58 -19 -93 -10 -35 -24 -104 -31 -154 -7 -49
-23 -135 -36 -190 -35 -145 -73 -422 -74 -550 -2 -122 21 -263 45 -281 8 -6
15 -16 15 -22 0 -7 12 -19 26 -28 20 -14 46 -17 122 -15 147 3 218 7 228 14 5
3 27 9 49 13 51 9 139 57 189 103 50 47 121 157 129 201 4 19 18 71 31 115 14
44 29 109 35 145 12 78 51 274 85 427 26 119 51 259 61 357 4 33 11 71 17 85
5 14 11 61 13 104 2 43 8 84 13 90 5 7 15 35 22 62 16 62 24 72 46 54 13 -11
56 -14 183 -15 252 -1 391 23 468 82 17 13 36 24 40 24 41 0 201 118 319 235
78 78 184 205 184 220 0 3 25 39 55 79 30 40 55 77 55 81 0 5 6 16 14 24 44
50 226 428 226 470 0 10 11 38 50 126 10 22 26 65 35 95 10 30 28 84 41 120
25 69 65 212 88 320 92 419 94 453 41 630 -33 106 -128 219 -220 260 -122 56
-354 65 -480 21 -33 -12 -65 -19 -71 -17 -6 2 -22 -2 -33 -11 -30 -21 -39 -8
-18 25 10 15 23 40 29 56 6 16 34 72 61 125 27 53 67 139 87 191 21 52 54 138
75 190 21 52 53 136 73 185 19 50 39 97 43 105 11 20 75 189 84 220 4 14 22
68 40 120 18 52 49 167 70 255 21 88 41 165 45 170 7 9 14 48 42 210 5 33 18
101 29 150 10 50 26 124 34 165 8 41 26 127 39 190 14 63 30 151 36 195 10 76
17 113 40 223 6 26 15 106 20 177 6 72 17 174 25 227 8 53 14 101 13 105 -3
13 22 274 32 328 17 90 42 407 42 530 0 66 -5 169 -10 228 -6 60 -8 142 -5
184 8 105 -14 385 -37 458 -10 33 -21 87 -25 120 -9 68 -38 156 -68 200 -36
53 -100 119 -131 137 -35 19 -155 23 -216 7z m238 -146 c46 -48 53 -60 48 -84
-4 -24 -2 -29 13 -29 16 0 22 -17 40 -107 12 -60 24 -124 27 -143 3 -19 10
-44 15 -56 14 -27 4 -574 -11 -664 -6 -36 -13 -108 -15 -160 -4 -100 -14 -151
-32 -157 -16 -6 -26 46 -12 63 9 11 9 18 -1 29 -20 24 -30 17 -30 -21 0 -21
-4 -33 -10 -29 -15 9 -12 54 5 71 8 9 23 13 34 9 22 -7 35 18 22 43 -5 9 -11
49 -15 88 -5 55 -4 73 6 76 10 4 8 9 -5 22 -9 10 -17 25 -18 34 0 9 -2 31 -2
47 -2 24 -6 30 -25 30 -21 0 -24 6 -27 50 -3 37 -1 44 5 28 5 -13 18 -23 29
-23 10 0 21 -7 25 -15 3 -8 11 -15 17 -15 8 0 10 16 5 53 -4 28 -7 60 -7 70 0
10 -8 17 -20 17 -13 0 -24 10 -30 30 -6 16 -15 28 -19 25 -9 -6 -23 25 -15 33
3 3 13 -3 24 -12 24 -22 33 -10 38 54 3 42 1 48 -22 58 -20 10 -24 17 -19 36
4 17 -1 35 -15 55 -26 36 -20 80 16 115 22 23 17 46 -7 31 -5 -3 -10 1 -10 9
0 8 -11 27 -24 41 -14 15 -28 41 -32 58 -3 18 -11 35 -16 38 -5 3 -11 25 -12
47 l-3 41 29 -20 c36 -26 42 -22 23 15 -8 16 -15 35 -15 42 0 16 -16 19 -25 4
-9 -15 -35 -12 -35 4 0 7 7 19 15 26 11 9 12 16 4 26 -17 21 -61 -12 -54 -40
2 -11 2 -15 -1 -9 -4 9 -21 11 -60 7 -53 -7 -54 -6 -52 17 2 18 -2 25 -20 27
-12 2 -20 8 -16 13 3 6 -3 5 -15 -3 -12 -7 -21 -18 -21 -25 0 -7 -8 -13 -17
-13 -11 0 -14 3 -7 8 6 4 14 19 17 33 9 34 39 49 123 59 123 15 151 7 212 -57z
m-399 -36 c-14 -12 -29 -30 -32 -39 -8 -22 -37 -24 -37 -3 0 8 3 15 8 15 4 0
23 13 42 30 19 16 37 27 40 24 3 -3 -7 -16 -21 -27z m161 -53 c0 -8 -4 -12
-10 -9 -5 3 -10 10 -10 16 0 5 5 9 10 9 6 0 10 -7 10 -16z m94 -78 c-8 -20
-30 -21 -37 -2 -4 10 2 16 16 18 28 5 29 4 21 -16z m-9572 -58 c-7 -7 -12 -8
-12 -2 0 14 12 26 19 19 2 -3 -1 -11 -7 -17z m9618 -14 c0 -8 -4 -12 -10 -9
-5 3 -10 10 -10 16 0 5 5 9 10 9 6 0 10 -7 10 -16z m-9640 -8 c0 -8 5 -16 12
-18 21 -7 -3 -28 -33 -28 -33 0 -37 12 -11 39 21 23 32 26 32 7z m9180 -25 c0
-6 -4 -13 -10 -16 -5 -3 -10 1 -10 9 0 9 5 16 10 16 6 0 10 -4 10 -9z m-8876
-97 c3 -8 2 -12 -4 -9 -6 3 -10 10 -10 16 0 14 7 11 14 -7z m8826 -14 c-9 -17
-30 -28 -30 -16 0 16 15 36 26 36 12 0 12 -4 4 -20z m-49 -121 c-17 -17 -31
-35 -31 -41 0 -6 -2 -9 -5 -7 -6 7 31 107 47 126 11 14 13 12 16 -15 3 -25 -4
-39 -27 -63z m-8806 23 c-4 -20 -1 -33 10 -42 13 -11 15 -9 15 11 l0 22 25
-23 c31 -30 31 -36 -1 -44 -14 -4 -24 -12 -21 -19 6 -17 69 -9 84 10 11 14 13
14 19 -3 6 -19 12 -36 33 -87 14 -35 14 -47 1 -47 -6 0 -15 11 -20 25 -15 39
-41 75 -51 70 -4 -3 -4 -18 2 -33 6 -15 12 -47 14 -71 1 -24 8 -47 14 -51 7
-3 9 -14 5 -23 -3 -10 -1 -24 6 -32 10 -12 10 -15 -3 -15 -9 0 -19 5 -22 10
-4 6 -15 8 -25 5 -14 -4 -19 2 -24 36 -8 49 -1 64 9 20 4 -17 11 -33 16 -37
15 -9 22 25 9 41 -7 8 -10 21 -7 30 4 8 2 17 -3 20 -6 4 -10 26 -10 51 0 48
-18 66 -45 44 -19 -16 -18 -17 -36 50 -15 59 -14 110 2 110 6 0 8 -12 4 -28z
m52 -177 c9 -25 -4 -29 -17 -6 -7 15 -7 21 0 21 6 0 13 -7 17 -15z m9623 11
c0 -2 -7 -9 -15 -16 -12 -10 -15 -10 -15 4 0 9 7 16 15 16 8 0 15 -2 15 -4z
m-771 -189 c15 -18 6 -25 -24 -19 -25 4 -31 13 -18 25 10 11 30 8 42 -6z
m-8679 -107 c7 -47 13 -101 15 -120 1 -19 6 -52 10 -73 9 -45 -8 -75 -32 -55
-9 7 -12 21 -8 35 3 14 1 23 -6 23 -7 0 -9 9 -5 24 3 13 2 35 -2 47 -5 14 -4
34 2 51 8 21 8 31 0 36 -16 10 -25 120 -11 125 20 8 25 -5 37 -93z m8455 -62
c-9 -35 -18 -70 -19 -78 -11 -67 -20 -100 -28 -100 -6 0 -7 14 -3 38 5 20 9
48 11 62 4 32 29 129 40 155 17 40 16 -12 -1 -77z m-8510 -1 c1 -27 -5 -43
-22 -59 -29 -27 -29 -36 0 -40 18 -2 21 -8 19 -36 -2 -18 1 -38 6 -45 14 -18
22 -96 10 -103 -5 -3 -7 -13 -4 -21 4 -8 1 -11 -5 -8 -6 4 -8 14 -4 22 8 23
-4 53 -22 53 -10 0 -14 6 -10 19 2 10 0 26 -5 35 -7 12 -5 16 7 16 19 0 20 34
0 50 -8 6 -23 9 -35 5 -15 -5 -20 -2 -20 12 1 21 23 53 38 53 13 0 24 29 16
42 -3 5 -3 26 1 46 6 33 8 35 18 17 6 -11 11 -37 12 -58z m8828 18 c4 -8 2
-17 -3 -20 -6 -4 -10 3 -10 14 0 25 6 27 13 6z m499 -30 c-2 -14 -8 -25 -13
-25 -10 0 -12 34 -2 43 13 14 20 6 15 -18z m-9382 -6 c0 -11 -4 -17 -10 -14
-5 3 -10 13 -10 21 0 8 5 14 10 14 6 0 10 -9 10 -21z m9390 -82 c0 -42 -15
-67 -23 -38 -3 12 -12 21 -21 21 -22 0 -20 10 7 36 27 27 37 22 37 -19z m20
-118 c0 -36 -11 -37 -27 -2 -17 37 -16 42 7 36 14 -4 20 -14 20 -34z m-504
-76 c-10 -11 -18 4 -21 39 -4 56 9 66 18 15 5 -26 7 -51 3 -54z m-9242 -13 c4
-36 11 -79 17 -97 7 -22 7 -38 0 -51 -7 -13 -6 -26 4 -45 21 -41 44 -229 47
-392 3 -203 -12 -617 -24 -632 -6 -7 -8 -62 -5 -132 5 -120 2 -161 -13 -161
-5 0 -11 10 -13 23 -2 12 -5 3 -6 -21 0 -27 3 -41 9 -37 6 4 10 -5 10 -19 0
-14 -5 -26 -11 -26 -7 0 -8 -24 -4 -71 6 -66 -5 -130 -25 -152 -7 -8 -4 57 5
80 2 7 0 15 -4 18 -5 2 -10 40 -11 82 -4 159 -7 200 -16 214 -5 8 -7 84 -4
169 5 225 3 294 -12 367 -9 42 -8 61 6 102 16 50 16 50 -10 97 l-26 47 11 116
c6 64 14 201 17 306 4 104 10 200 15 213 5 13 9 38 9 56 0 18 3 36 7 40 10 10
19 -20 27 -94z m9361 17 c8 -42 3 -87 -10 -90 -6 -1 -11 26 -13 61 -3 66 13
86 23 29z m-500 6 c-4 -10 -10 -31 -12 -48 -2 -16 -7 -41 -10 -55 -6 -22 -7
-21 -13 14 -8 42 11 106 31 106 7 0 8 -7 4 -17z m-8376 -63 l2 -51 -30 16
c-36 18 -39 30 -10 45 16 9 19 17 14 38 -5 21 -4 23 8 14 7 -6 14 -34 16 -62z
m8734 19 c-4 -14 0 -25 11 -31 18 -10 22 -63 6 -88 -12 -20 -19 -10 -21 31 -1
18 -6 44 -11 56 -11 23 -5 53 11 53 5 0 7 -10 4 -21z m-8818 -85 c-21 -16 -35
-10 -17 8 7 7 12 21 13 33 0 18 1 18 12 -4 9 -19 8 -26 -8 -37z m9321 -10 c-4
-10 0 -18 12 -21 19 -4 20 -30 5 -73 -3 -8 -6 -44 -8 -80 -3 -85 -15 -141 -27
-134 -6 4 -8 31 -4 68 3 33 7 97 7 141 1 80 6 115 16 115 3 0 2 -7 -1 -16z
m-9218 -42 c3 -34 -6 -39 -37 -20 -18 11 -18 13 -3 34 22 30 36 25 40 -14z
m8849 -24 c-2 -13 -4 -5 -4 17 -1 22 1 32 4 23 2 -10 2 -28 0 -40z m-8921 -18
c4 -42 2 -55 -13 -66 -17 -13 -17 -14 2 -19 17 -5 20 -15 21 -63 1 -178 3
-190 24 -185 11 3 20 6 20 8 0 1 -5 16 -11 34 -9 26 -8 36 6 58 10 15 14 28 9
30 -30 11 -36 21 -24 42 6 12 9 35 5 50 -4 19 -1 32 10 41 8 7 15 21 15 31 0
24 19 25 22 2 0 -10 2 -43 2 -73 1 -30 5 -61 10 -69 5 -8 8 -47 8 -89 -1 -41
1 -79 5 -86 6 -10 10 -40 14 -139 2 -33 -7 -45 -23 -29 -21 21 -23 14 -23 -60
0 -48 4 -73 13 -75 6 -3 12 2 12 11 0 20 14 20 31 0 10 -12 10 -28 2 -72 -6
-31 -10 -90 -8 -130 1 -54 -2 -75 -12 -79 -14 -6 -19 -35 -4 -30 10 2 11 -1
11 -38 0 -16 -6 -25 -15 -25 -8 0 -15 5 -15 10 0 6 -8 10 -17 10 -17 -1 -17
-2 0 -14 14 -11 17 -22 12 -49 -4 -21 -3 -37 4 -41 17 -11 13 -26 -5 -19 -14
5 -16 2 -9 -23 19 -68 4 -308 -23 -374 -9 -22 -11 -18 -12 30 l-1 55 -15 -40
c-15 -41 -11 -109 8 -132 6 -7 7 -21 3 -30 -9 -21 -22 -91 -35 -183 -23 -174
-28 -209 -34 -218 -3 -6 -9 -36 -12 -68 -3 -32 -10 -61 -15 -65 -6 -3 -13 -28
-15 -55 -6 -85 -12 -116 -23 -127 -6 -6 -11 -27 -11 -47 0 -20 -5 -41 -12 -48
-7 -7 -15 -36 -19 -64 -17 -124 -21 -139 -38 -136 -13 3 -17 18 -19 72 -2 59
0 68 17 73 17 4 41 41 41 64 0 6 -10 19 -21 28 -19 15 -20 20 -9 42 7 13 17
32 22 42 5 11 8 44 7 76 -1 31 3 66 9 78 7 12 12 42 12 67 0 25 5 48 10 51 6
4 8 11 5 16 -4 5 -3 15 2 21 8 14 9 20 11 86 2 33 6 42 20 42 30 0 34 13 11
31 -21 16 -23 24 -21 118 1 56 7 111 12 122 6 11 8 24 5 30 -4 5 7 25 24 45
17 19 31 39 31 44 0 13 -17 13 -25 0 -11 -17 -27 -11 -21 8 7 21 13 86 21 217
6 93 25 144 25 67 0 -49 12 -54 30 -12 13 30 11 47 -4 42 -17 -6 -36 21 -30
42 4 12 12 75 18 140 7 78 15 121 24 124 6 2 12 -3 12 -12 0 -10 9 -16 25 -16
22 0 26 4 25 33 0 17 1 43 2 57 5 41 -26 31 -32 -10 -4 -29 -9 -35 -30 -35
-27 0 -35 -16 -46 -100 l-8 -50 -6 45 c-8 49 -2 119 11 136 4 5 6 20 2 33 -4
17 -1 23 16 28 19 5 22 12 21 41 -1 4 -10 6 -21 4 -12 -2 -19 2 -18 10 3 15
-8 62 -22 96 -7 17 -4 26 11 39 22 19 27 49 8 55 -15 5 -1 28 17 28 8 0 13
-11 13 -27 -1 -44 1 -53 12 -53 13 0 11 138 -2 146 -6 4 -14 1 -19 -7 -12 -20
-28 29 -21 70 5 38 -12 132 -33 173 -12 24 -11 27 7 31 15 4 19 10 13 24 -17
40 -17 64 0 83 12 13 14 23 7 36 -6 11 -6 27 1 45 14 36 17 32 23 -31z m8394
31 c0 -26 -10 -51 -21 -51 -10 0 -12 53 -2 63 12 13 23 7 23 -12z m420 -25 c0
-2 3 -12 7 -21 5 -15 3 -16 -15 -6 -25 13 -29 31 -7 31 8 0 15 -2 15 -4z m-56
-32 c21 -8 20 -30 -1 -38 -21 -8 -38 8 -30 28 7 18 9 18 31 10z m640 -93 c-10
-34 -21 -61 -25 -61 -4 0 -5 8 -3 18 2 9 8 44 15 76 8 45 13 56 20 43 6 -10 4
-37 -7 -76z m-1046 -25 c-12 -52 -17 -59 -34 -45 -13 10 -12 14 1 29 9 10 19
35 22 56 5 29 8 34 13 19 4 -11 3 -37 -2 -59z m365 -78 c-5 -122 -11 -160 -26
-155 -8 3 -11 21 -8 53 3 43 1 47 -13 35 -9 -8 -16 -9 -16 -3 0 6 -3 17 -6 25
-4 11 2 16 18 19 18 2 24 10 26 38 9 114 29 104 25 -12z m134 -95 c-7 -130
-13 -173 -27 -173 -14 0 -19 54 -10 100 8 37 15 103 19 188 1 6 6 12 13 12 8
0 9 -34 5 -127z m-514 36 c-16 -16 -53 2 -53 25 0 35 11 38 37 10 14 -15 21
-30 16 -35z m1043 9 c-4 -13 -9 -57 -12 -98 -3 -41 -10 -91 -15 -111 -5 -20
-6 -44 -3 -53 3 -8 -1 -50 -9 -93 -8 -43 -15 -118 -16 -168 -1 -49 -7 -108
-13 -130 -6 -22 -12 -60 -14 -85 -5 -76 -22 -188 -29 -200 -4 -7 -14 -62 -22
-124 -7 -61 -16 -120 -18 -131 -3 -11 -8 -38 -13 -60 -5 -22 -14 -50 -20 -62
-7 -12 -12 -39 -12 -60 0 -21 -7 -70 -16 -108 -8 -39 -18 -81 -21 -95 -3 -14
-9 -29 -13 -35 -4 -5 -11 -41 -14 -80 -11 -109 -34 -220 -55 -267 -10 -24 -24
-65 -29 -93 -6 -27 -16 -77 -22 -110 -7 -33 -18 -73 -26 -90 -17 -39 -64 -192
-64 -209 0 -8 -7 -19 -15 -26 -8 -7 -15 -25 -15 -40 0 -15 -8 -38 -18 -51 -10
-13 -24 -42 -31 -64 -20 -60 -50 -123 -61 -130 -5 -3 -10 -16 -10 -28 0 -24
-29 -112 -53 -162 -21 -43 -43 -95 -57 -135 -21 -61 -69 -157 -85 -170 -20
-17 -20 3 0 34 9 13 16 40 17 60 1 25 7 40 20 47 20 11 24 39 7 56 -7 7 -2 17
21 33 21 15 29 27 25 40 -3 9 1 23 10 30 8 7 15 24 15 38 0 14 7 33 16 43 17
19 33 70 41 132 3 22 10 37 19 37 22 0 52 79 56 147 4 56 8 66 41 98 29 28 37
44 37 71 0 22 6 37 15 40 18 7 20 35 3 52 -9 9 -7 12 9 12 28 0 40 46 19 69
-9 10 -12 21 -7 27 13 13 24 55 14 52 -13 -5 -14 4 -7 50 5 32 11 42 26 42 24
0 27 9 31 108 2 55 8 86 17 92 8 5 13 33 15 74 1 37 7 72 14 79 6 6 11 20 11
30 0 11 8 26 18 33 14 11 17 26 14 103 -1 53 2 92 8 96 5 3 10 15 10 26 0 10
5 19 10 19 6 0 10 7 10 15 0 9 8 27 17 41 13 20 14 27 4 33 -9 6 -10 20 -5 46
6 33 5 37 -10 32 -14 -6 -17 -2 -14 20 4 34 28 43 29 11 0 -15 3 -18 6 -8 3 8
15 27 25 43 11 15 15 27 9 27 -6 0 -11 9 -11 20 0 11 5 20 10 20 17 0 11 25
-10 48 -11 12 -20 27 -20 34 1 8 7 5 15 -6 23 -31 38 -6 47 77 4 39 12 104 17
142 5 40 5 74 0 79 -5 6 -9 -3 -9 -22 0 -18 -5 -32 -10 -32 -21 0 -22 30 -3
63 11 18 23 44 26 59 6 23 4 25 -15 20 -18 -4 -20 -2 -14 14 5 10 11 39 13 64
3 25 10 50 15 57 5 7 5 14 -2 18 -6 3 -7 11 -4 17 5 7 12 5 20 -6 22 -31 37
-8 31 47 -3 40 -1 55 14 71 14 14 19 35 19 75 1 71 24 274 34 289 13 21 29 13
22 -10z m-371 -67 c-3 -6 -11 -8 -17 -5 -6 4 -5 9 3 15 16 10 23 4 14 -10z
m-705 -6 c0 -8 -4 -15 -10 -15 -5 0 -10 7 -10 15 0 8 5 15 10 15 6 0 10 -7 10
-15z m371 -217 c-6 -17 -11 -42 -11 -56 0 -21 -2 -22 -15 -12 -8 7 -15 20 -15
29 0 14 -2 14 -10 1 -18 -29 -18 -4 0 50 11 30 20 64 20 75 1 15 6 10 21 -18
17 -32 18 -44 10 -69z m-401 39 c0 -13 5 -28 11 -34 7 -7 3 -18 -15 -36 -19
-19 -26 -37 -27 -69 -1 -24 -3 -54 -5 -68 -2 -14 -7 -47 -10 -75 -3 -27 -11
-56 -18 -64 -6 -8 -12 -36 -13 -64 -1 -27 -6 -53 -12 -56 -5 -4 -11 -47 -12
-96 -3 -75 -7 -95 -26 -121 -13 -17 -23 -43 -23 -57 0 -15 -6 -41 -14 -59 -22
-53 -36 -103 -36 -129 0 -24 -19 -84 -32 -105 -10 -16 2 -54 18 -54 15 0 18
-60 5 -94 -7 -19 -8 -19 -14 -1 -4 10 -5 33 -1 51 9 47 -10 43 -33 -6 -21 -46
-37 -53 -29 -12 4 15 7 48 8 75 2 37 6 47 20 47 10 0 15 5 12 13 -2 7 2 32 10
55 9 23 13 49 10 56 -3 8 2 26 12 41 9 14 19 49 21 76 4 44 2 51 -16 56 -12 3
-18 9 -15 15 3 5 14 6 24 3 13 -4 22 1 29 14 14 26 14 31 -4 31 -18 0 -20 19
-2 26 8 3 14 24 15 52 4 113 6 127 23 124 17 -2 31 40 29 86 -5 90 -1 146 13
202 8 36 18 82 22 103 4 28 11 37 26 37 14 0 21 9 26 30 7 35 23 40 23 7z
m270 -56 c0 -6 -4 -13 -10 -16 -5 -3 -10 1 -10 9 0 9 5 16 10 16 6 0 10 -4 10
-9z m80 -258 c0 -35 -30 -83 -52 -83 -10 0 -21 -7 -24 -15 -8 -21 14 -45 34
-38 11 3 13 2 5 -4 -6 -4 -15 -41 -18 -80 -5 -45 -12 -71 -19 -70 -6 1 -13
-11 -14 -28 -2 -16 -7 -32 -10 -35 -18 -13 -29 -49 -25 -74 5 -23 2 -27 -12
-24 -14 2 -18 13 -18 45 0 44 16 73 39 73 21 0 17 15 -10 41 -18 17 -22 28
-15 40 5 10 6 25 3 33 -5 12 1 16 25 16 37 0 36 -1 12 42 -21 36 -18 98 4 98
7 0 18 7 25 15 10 12 9 16 -4 21 -9 3 -16 13 -16 21 0 8 5 11 10 8 6 -3 22 3
36 14 31 24 44 20 44 -16z m110 -8 c-5 -17 -16 -97 -25 -180 -9 -82 -23 -181
-31 -220 -9 -38 -19 -99 -23 -135 -5 -36 -14 -81 -20 -100 -7 -19 -16 -71 -20
-115 -18 -173 -80 -475 -111 -535 -19 -36 -44 -110 -80 -236 -12 -39 -27 -80
-35 -90 -13 -17 -14 -12 -9 46 3 36 12 103 21 150 8 46 17 102 19 125 2 22 9
78 16 124 9 66 16 85 30 89 21 5 24 18 6 24 -9 3 -6 32 11 114 13 60 29 143
37 184 22 113 49 222 87 355 19 66 38 138 42 160 4 22 14 56 22 75 9 19 15 38
15 42 -3 12 19 111 30 141 14 37 31 20 18 -18z m-9582 -45 c-4 -61 -23 -67
-23 -7 0 48 2 57 16 57 6 0 9 -22 7 -50z m9709 -45 c-4 -8 -11 -15 -17 -15
-14 0 -13 27 3 33 16 6 21 1 14 -18z m-727 -5 c0 -5 -4 -10 -10 -10 -5 0 -10
5 -10 10 0 6 5 10 10 10 6 0 10 -4 10 -10z m-8980 -69 c0 -22 -5 -43 -10 -46
-6 -4 -8 -21 -4 -40 6 -35 -3 -81 -14 -70 -19 19 -1 195 19 195 5 0 9 -18 9
-39z m9685 -88 c-9 -54 -25 -65 -23 -17 1 44 5 54 20 54 6 0 8 -14 3 -37z
m385 7 c0 -6 -7 -13 -15 -16 -10 -4 -12 -10 -6 -18 10 -13 -5 -60 -17 -52 -5
3 -9 21 -10 41 -1 25 3 35 13 35 8 0 15 5 15 10 0 6 5 10 10 10 6 0 10 -5 10
-10z m-10086 -177 c3 -23 2 -44 -4 -48 -5 -3 -9 -36 -8 -73 1 -69 -7 -102 -24
-102 -10 0 -2 237 9 266 8 23 20 5 27 -43z m9662 -8 c-8 -32 -22 -32 -28 0 -4
17 0 29 11 35 19 11 25 -1 17 -35z m-8886 -157 c-7 -32 -17 -58 -21 -58 -14 0
-8 83 8 105 7 11 14 31 14 45 2 22 2 22 6 -5 3 -16 -1 -56 -7 -87z m8560 46
c0 -9 -5 -14 -12 -12 -18 6 -21 28 -4 28 9 0 16 -7 16 -16z m-26 -156 c-4 -13
-7 -44 -6 -70 2 -50 -6 -59 -29 -32 -10 12 -10 22 -1 48 7 18 12 42 12 54 0
13 6 22 16 22 11 0 14 -6 8 -22z m-9340 -98 c-8 -96 -23 -125 -25 -50 -3 66 0
120 7 140 4 13 6 13 15 0 6 -9 7 -46 3 -90z m9292 -45 c3 -8 1 -27 -4 -42 -8
-22 -11 -24 -11 -8 -1 11 -4 30 -7 43 -7 25 13 32 22 7z m-404 -80 c0 -5 -5
-11 -11 -13 -6 -2 -11 4 -11 13 0 9 5 15 11 13 6 -2 11 -8 11 -13z m-8911 -78
c-13 -13 -15 1 -4 30 7 17 8 17 11 -1 2 -10 -1 -23 -7 -29z m799 -11 c0 -3 -4
-8 -10 -11 -5 -3 -10 -1 -10 4 0 6 5 11 10 11 6 0 10 -2 10 -4z m-360 -75 c0
-6 -4 -13 -10 -16 -5 -3 -10 1 -10 9 0 9 5 16 10 16 6 0 10 -4 10 -9z m8840
-31 c0 -25 -4 -30 -25 -30 l-26 0 23 30 c12 17 23 30 25 30 2 0 3 -13 3 -30z
m-402 -98 c-5 -22 -17 -43 -25 -46 -12 -5 -14 1 -8 36 4 24 12 54 17 68 10 25
10 25 18 4 5 -12 4 -39 -2 -62z m367 -103 c-8 -63 -21 -154 -29 -204 -7 -49
-12 -94 -9 -98 3 -4 0 -13 -5 -20 -5 -7 -15 -50 -22 -97 -20 -142 -30 -183
-55 -237 -14 -28 -25 -59 -25 -67 0 -9 -4 -16 -9 -16 -14 0 -8 103 6 115 13
11 43 115 53 190 5 28 12 77 18 110 21 121 35 229 34 259 -1 17 4 44 10 59 8
21 8 31 -1 40 -15 15 -14 28 2 21 8 -3 18 9 26 31 7 20 15 35 17 32 2 -2 -3
-55 -11 -118z m181 -210 c-4 -27 -17 -74 -30 -102 -13 -29 -27 -65 -30 -82 -4
-16 -16 -48 -26 -70 -10 -22 -30 -67 -45 -100 -36 -82 -40 -88 -54 -93 -28 -9
26 131 70 183 9 11 19 36 23 56 3 20 20 65 37 99 17 35 32 73 33 84 4 31 17
76 23 76 3 0 3 -23 -1 -51z m-683 -92 c-7 -50 -23 -57 -23 -11 0 23 3 44 6 47
14 13 22 -4 17 -36z m141 -128 c-8 -13 -24 -1 -24 18 0 13 3 13 15 3 8 -7 12
-16 9 -21z m-8169 -108 c3 -5 1 -12 -5 -16 -5 -3 -10 1 -10 9 0 18 6 21 15 7z
m-25 -57 c0 -12 -40 -27 -48 -19 -3 2 3 16 13 31 13 21 19 24 26 13 5 -8 9
-19 9 -25z m8137 -24 c-11 -29 -12 -29 -19 -9 -5 13 -4 27 3 35 18 22 28 6 16
-26z m-7807 -30 c0 -5 -12 -10 -26 -10 -14 0 -23 4 -19 10 3 6 15 10 26 10 10
0 19 -4 19 -10z m130 1 c0 -9 -90 -21 -100 -14 -2 2 2 8 10 13 19 12 90 13 90
1z m65 -11 c4 -6 -5 -10 -19 -10 -14 0 -26 5 -26 10 0 6 9 10 19 10 11 0 23
-4 26 -10z m255 -7 c14 -10 29 -18 35 -18 31 -2 85 -18 85 -25 0 -5 15 -12 33
-16 17 -3 42 -15 55 -25 13 -10 35 -20 50 -24 16 -3 40 -17 54 -30 15 -14 33
-22 40 -20 8 3 27 -8 43 -25 16 -16 24 -30 17 -30 -6 0 -14 5 -17 10 -4 6 -14
10 -23 8 -10 -1 -31 6 -49 15 -18 9 -41 17 -53 17 -11 0 -20 7 -20 15 0 10
-10 15 -30 15 -16 0 -37 9 -48 20 -10 11 -27 21 -38 23 -25 5 -52 15 -92 35
-29 15 -34 15 -42 2 -8 -12 -10 -10 -10 9 0 16 -4 21 -15 17 -8 -3 -27 6 -41
19 l-27 25 34 0 c19 0 46 -8 59 -17z m-121 -19 c15 -15 14 -16 -9 -10 -14 3
-39 6 -56 6 -19 0 -34 6 -38 15 -4 13 3 14 41 11 25 -3 53 -13 62 -22z m7881
-18 c0 -16 -28 -42 -36 -33 -8 7 14 47 26 47 6 0 10 -6 10 -14z m-578 -32 c-5
-25 -10 -30 -22 -18 -13 13 -2 46 14 41 6 -2 9 -13 8 -23z m133 6 c3 -5 1 -10
-4 -10 -6 0 -11 5 -11 10 0 6 2 10 4 10 3 0 8 -4 11 -10z m-7280 -20 c3 -5 1
-10 -4 -10 -6 0 -11 5 -11 10 0 6 2 10 4 10 3 0 8 -4 11 -10z m7685 -20 c0 -5
-5 -10 -11 -10 -5 0 -7 5 -4 10 3 6 8 10 11 10 2 0 4 -4 4 -10z m-552 -22 c-4
-27 -28 -36 -28 -10 0 20 8 32 22 32 5 0 8 -10 6 -22z m528 -42 c-3 -13 -7
-30 -9 -38 -2 -7 -2 -10 0 -5 9 14 23 7 23 -13 0 -11 -4 -20 -8 -20 -10 0 -42
-65 -42 -86 0 -20 -30 -30 -42 -13 -7 10 -8 0 -4 -31 4 -37 2 -48 -12 -57 -10
-6 -24 -30 -32 -53 -13 -39 -33 -60 -46 -47 -3 3 2 19 10 36 9 16 16 42 16 56
0 15 7 33 15 41 8 9 15 26 15 38 0 25 22 50 33 39 4 -3 7 3 7 14 0 12 6 23 14
26 7 3 16 23 19 44 3 21 10 50 16 66 13 34 36 37 27 3z m112 -38 c-4 -46 -28
-49 -28 -4 0 26 4 36 16 36 11 0 14 -8 12 -32z m-569 -70 c-8 -14 -14 -18 -17
-10 -4 13 17 46 25 38 3 -2 -1 -15 -8 -28z m45 -49 c-3 -5 -10 -7 -15 -3 -5 3
-7 10 -3 15 3 5 10 7 15 3 5 -3 7 -10 3 -15z m-8834 -81 c0 -23 -3 -29 -11
-21 -6 6 -8 20 -4 32 9 30 15 26 15 -11z m8627 -50 c-2 -13 -4 -5 -4 17 -1 22
1 32 4 23 2 -10 2 -28 0 -40z m163 10 c0 -10 -12 -10 -29 1 -8 5 -11 16 -7 27
6 16 7 16 21 -2 8 -10 15 -22 15 -26z m-170 -68 c0 -5 -5 -10 -11 -10 -5 0 -7
5 -4 10 3 6 8 10 11 10 2 0 4 -4 4 -10z m163 -89 c8 -37 -11 -114 -25 -105 -5
3 -6 25 -2 49 7 48 -6 80 -32 80 -26 0 -28 22 -2 29 19 5 21 8 8 16 -13 9 -13
11 -1 19 17 11 44 -33 54 -88z m-8785 9 c0 -39 -4 -67 -9 -63 -15 16 -15 133
1 133 5 0 9 -30 8 -70z m9222 10 c0 -47 -4 -64 -20 -80 -12 -12 -25 -18 -30
-15 -13 8 -1 57 17 71 7 7 17 28 20 48 8 53 13 44 13 -24z m-8083 33 c-13 -13
-107 -6 -107 8 0 5 27 7 60 6 45 -1 56 -5 47 -14z m103 -23 c8 -5 11 -10 5
-10 -5 0 -17 5 -25 10 -8 5 -10 10 -5 10 6 0 17 -5 25 -10z m56 -18 c-9 -9
-37 8 -31 18 5 8 11 7 21 -1 8 -6 12 -14 10 -17z m7306 -17 c-2 -14 -8 -25
-12 -25 -4 0 -5 11 -2 25 2 14 8 25 12 25 4 0 5 -11 2 -25z m-7564 -30 c267
-36 434 -76 483 -114 13 -10 39 -26 58 -35 77 -40 280 -227 309 -286 7 -14 28
-50 46 -80 98 -159 156 -303 156 -389 0 -25 5 -62 10 -81 14 -47 14 -111 -1
-255 -7 -66 -12 -140 -13 -165 -1 -25 -5 -51 -9 -58 -5 -7 -10 -33 -13 -59 -3
-26 -9 -52 -15 -59 -6 -7 -8 -18 -4 -23 6 -10 -15 -84 -34 -118 -6 -10 -27
-58 -47 -108 -48 -121 -49 -121 -93 -190 -22 -33 -40 -67 -40 -76 -1 -28 -221
-250 -267 -270 -23 -9 -50 -29 -60 -44 -11 -15 -27 -34 -37 -43 -9 -10 -38
-38 -64 -64 -65 -67 -223 -194 -253 -203 -14 -4 -48 -18 -77 -31 -68 -31 -113
-40 -318 -61 -181 -19 -379 -24 -415 -11 -16 6 -20 13 -15 26 4 9 11 49 16 87
4 39 15 115 24 170 24 152 33 261 51 605 9 191 13 368 9 450 -10 219 -20 586
-18 710 2 177 7 220 36 281 15 31 27 63 27 72 0 9 5 19 11 23 6 3 19 25 30 48
10 22 23 48 28 56 5 8 21 54 36 103 15 48 31 90 36 93 5 3 9 15 9 27 0 12 4
38 10 57 l10 35 110 2 c70 1 176 -7 288 -22z m8492 -44 c0 -10 -30 -24 -37
-17 -3 3 -2 9 2 15 8 13 35 15 35 2z m-7864 -38 c12 -12 13 -18 4 -21 -7 -3
-22 5 -33 17 -18 18 -19 21 -5 21 9 0 24 -8 34 -17z m7475 -36 c-13 -32 -31
-35 -31 -5 0 27 33 68 38 46 2 -8 -2 -27 -7 -41z m-9137 0 c-10 -28 -24 -19
-24 15 0 29 2 31 15 17 9 -9 13 -23 9 -32z m1771 -36 c43 -41 73 -81 60 -81
-25 0 -148 116 -139 131 7 13 26 1 79 -50z m6821 39 c9 0 2 -13 -18 -34 -18
-19 -34 -33 -36 -31 -2 1 0 19 4 40 5 26 10 35 21 31 8 -3 21 -6 29 -6z m941
-52 c-7 -21 -17 -40 -23 -42 -15 -6 -5 29 16 61 19 30 21 25 7 -19z m-812 -30
c21 -10 29 -21 28 -36 -2 -12 2 -22 9 -22 28 0 -7 -15 -38 -16 -28 -1 -34 3
-34 19 0 12 -9 31 -21 43 -24 25 -18 48 9 35 9 -4 31 -14 47 -23z m262 10 c-3
-8 -6 -5 -6 6 -1 11 2 17 5 13 3 -3 4 -12 1 -19z m113 -38 c0 -12 -3 -12 -16
2 -9 9 -13 21 -9 28 9 14 25 -5 25 -30z m-8623 -42 c-3 -8 -6 -5 -6 6 -1 11 2
17 5 13 3 -3 4 -12 1 -19z m1437 -37 c28 -48 13 -48 -18 0 -15 23 -22 39 -14
37 7 -3 21 -19 32 -37z m7556 23 c0 -8 -4 -12 -10 -9 -5 3 -10 10 -10 16 0 5
5 9 10 9 6 0 10 -7 10 -16z m-7520 -14 c0 -5 -2 -10 -4 -10 -3 0 -8 5 -11 10
-3 6 -1 10 4 10 6 0 11 -4 11 -10z m6769 -18 c6 -12 5 -27 -4 -47 -7 -17 -16
-42 -19 -57 -4 -16 -13 -28 -21 -28 -18 0 -20 21 -3 38 9 9 9 15 -1 25 -10 10
-14 8 -22 -6 -16 -28 -28 -10 -16 22 9 26 15 29 39 24 27 -5 29 -4 22 21 -7
30 10 36 25 8z m-8717 -27 c-4 -25 -13 -31 -25 -19 -8 8 10 44 22 44 5 0 6
-11 3 -25z m1978 15 c0 -5 -2 -10 -4 -10 -3 0 -8 5 -11 10 -3 6 -1 10 4 10 6
0 11 -4 11 -10z m7450 -19 c0 -12 -29 -41 -40 -41 -5 0 -4 11 2 25 11 24 38
35 38 16z m513 -38 c-7 -2 -19 -2 -25 0 -7 3 -2 5 12 5 14 0 19 -2 13 -5z
m-7283 -124 c0 -43 -4 -79 -8 -79 -4 0 -14 21 -21 46 -10 34 -11 48 -2 57 6 6
11 24 11 40 0 16 4 26 10 22 6 -3 10 -42 10 -86z m5993 -49 c3 -14 14 -20 31
-20 34 0 33 -13 -1 -29 -54 -26 -58 -28 -58 -43 0 -9 -6 -22 -13 -30 -7 -9
-10 -23 -6 -32 4 -11 1 -16 -11 -16 -13 0 -16 5 -10 23 18 60 26 120 16 130
-7 7 -5 14 7 23 24 19 39 17 45 -6z m-482 -100 c17 0 18 -3 9 -21 -7 -11 -18
-18 -25 -15 -7 2 -16 -2 -19 -10 -6 -16 -46 -19 -46 -3 0 7 -10 9 -25 7 -28
-6 -31 0 -12 24 12 17 59 28 85 21 8 -1 22 -3 33 -3z m-5978 -52 c4 -12 4 -24
1 -27 -6 -7 -24 20 -24 37 0 21 17 13 23 -10z m4758 -28 c4 -8 10 -23 13 -32
8 -25 30 -23 23 2 -4 17 0 20 24 20 16 0 32 1 35 3 4 1 12 -6 17 -15 15 -23
-8 -77 -25 -60 -7 7 -18 12 -25 12 -10 0 -11 -5 -3 -19 15 -30 13 -34 -19 -28
-21 4 -34 1 -46 -13 -16 -18 -14 -25 8 -21 4 0 7 -4 7 -10 0 -7 -10 -9 -25 -5
-14 4 -25 2 -25 -4 0 -5 -7 -10 -15 -10 -18 0 -18 4 -5 30 31 62 32 58 -15 56
-31 -1 -49 -7 -59 -21 -12 -16 -17 -18 -27 -7 -18 17 -24 15 -37 -13 -8 -17
-20 -25 -37 -25 -15 0 -24 -4 -21 -9 3 -4 -13 -25 -35 -45 -41 -36 -59 -44
-59 -26 0 6 -4 10 -10 10 -5 0 -10 -9 -10 -21 0 -12 -4 -17 -11 -14 -13 9 -59
-33 -59 -54 -1 -24 -106 -135 -115 -121 -4 6 0 19 9 29 9 10 16 25 16 34 0 9
5 17 11 17 15 0 55 43 73 78 8 15 31 41 51 57 50 41 56 46 95 94 19 22 40 41
46 41 7 0 14 7 18 15 3 8 11 15 18 15 6 0 23 11 37 24 50 48 164 70 182 36z
m1641 -42 c-7 -7 -12 -24 -12 -39 0 -15 -5 -31 -11 -35 -8 -4 -9 4 -4 27 7 33
22 59 33 59 3 0 1 -5 -6 -12z m-1007 -7 c3 -6 -4 -15 -15 -21 -17 -9 -20 -8
-20 10 0 20 24 28 35 11z m-4238 -37 c-3 -3 -12 -4 -19 -1 -8 3 -5 6 6 6 11 1
17 -2 13 -5z m4097 -24 c19 -1 19 -2 4 -11 -10 -5 -18 -18 -18 -28 0 -24 -7
-29 -33 -24 -23 5 -51 49 -41 65 4 6 20 7 36 4 17 -3 40 -6 52 -6z m234 -29
c9 -5 24 -12 33 -15 21 -6 32 -96 12 -96 -19 0 -16 -14 7 -35 16 -15 19 -26
14 -54 -3 -20 -12 -46 -20 -58 -20 -32 -18 -39 22 -62 26 -16 33 -25 26 -34
-10 -12 -40 -102 -63 -188 -9 -35 -17 -45 -28 -41 -10 4 -13 1 -8 -11 4 -10 2
-30 -5 -45 -6 -15 -15 -38 -20 -52 -6 -14 -14 -32 -19 -40 -5 -8 -20 -35 -34
-60 -28 -50 -68 -76 -131 -86 l-41 -6 -1 63 c0 35 -4 75 -7 89 -7 24 -6 24 18
-5 21 -24 28 -28 39 -17 10 10 10 17 1 31 -16 26 10 81 38 81 11 0 19 7 19 16
0 10 -6 14 -15 11 -20 -8 -28 9 -15 33 8 14 17 19 30 15 24 -8 35 11 19 31
-11 13 -10 18 4 26 10 5 15 13 12 19 -4 5 1 9 9 9 9 0 16 7 16 15 0 8 4 23 9
33 28 54 51 127 51 159 0 13 6 26 13 28 7 3 13 28 15 63 2 31 7 61 13 67 5 5
9 24 9 42 0 28 -6 37 -35 54 -19 12 -35 23 -35 25 0 7 30 4 48 -5z m-488 -62
c0 -6 -4 -7 -10 -4 -5 3 -10 11 -10 16 0 6 5 7 10 4 6 -3 10 -11 10 -16z
m-4210 -14 c0 -8 -4 -15 -10 -15 -5 0 -10 -11 -10 -25 0 -28 -15 -33 -24 -9
-5 13 -9 14 -21 4 -12 -10 -15 -9 -15 8 0 23 35 52 62 52 10 0 18 -7 18 -15z
m-275 -49 c4 -30 4 -59 0 -65 -15 -26 -23 -7 -23 54 1 36 5 65 9 65 4 0 11
-24 14 -54z m-503 -149 c-5 -79 -21 -115 -23 -55 -3 55 1 130 8 178 l7 45 7
-45 c4 -25 5 -80 1 -123z m3608 101 c-23 -18 -55 -40 -70 -48 -14 -8 -37 -25
-51 -38 -18 -18 -21 -25 -10 -31 10 -7 10 -12 0 -29 -10 -16 -15 -18 -26 -7
-18 18 -16 30 8 68 22 33 99 87 125 87 8 0 14 4 14 9 0 9 18 16 44 20 5 0 -10
-14 -34 -31z m3755 3 c-3 -6 -14 -11 -24 -11 -9 0 -32 -11 -50 -24 -19 -14
-48 -28 -65 -32 -17 -3 -35 -10 -41 -14 -5 -4 -26 -11 -45 -14 l-35 -7 30 23
c16 13 34 23 40 24 13 1 33 8 120 43 72 28 82 30 70 12z m-4915 -6 c0 -8 -4
-15 -9 -15 -13 0 -22 16 -14 24 11 11 23 6 23 -9z m5138 3 c12 -16 1 -140 -15
-159 -6 -8 -14 -30 -18 -49 -14 -63 -97 -241 -134 -287 -43 -53 -91 -120 -91
-127 0 -9 -52 -80 -62 -84 -5 -2 -8 -8 -8 -14 0 -6 -18 -32 -40 -58 -22 -26
-40 -52 -40 -57 0 -5 -13 -24 -30 -43 -16 -19 -29 -39 -30 -45 0 -5 -9 -18
-20 -30 -11 -11 -38 -41 -62 -68 -57 -64 -126 -101 -218 -116 -67 -11 -80 -11
-125 5 -27 10 -66 19 -85 19 -19 1 -63 2 -97 3 -70 2 -99 21 -88 56 4 12 9 32
12 46 7 34 142 310 152 310 4 0 21 24 36 53 27 50 83 137 94 147 6 5 24 38 61
106 9 16 25 43 36 60 12 16 24 37 27 46 7 19 62 46 117 58 136 29 330 88 351
106 8 8 19 14 23 14 4 0 31 15 59 34 68 44 148 85 168 86 9 0 21 -6 27 -12z
m-5066 -14 c35 -18 137 -98 156 -122 6 -9 12 -21 12 -26 0 -6 -6 -4 -13 5 -8
11 -22 15 -45 11 -25 -3 -36 1 -52 19 -10 13 -19 29 -20 36 0 12 -54 43 -75
43 -7 0 -12 11 -11 25 1 29 7 30 48 9z m-1880 -21 c-3 -16 -7 -22 -10 -15 -4
13 4 42 11 42 2 0 2 -12 -1 -27z m-2495 -55 c-3 -8 -6 -5 -6 6 -1 11 2 17 5
13 3 -3 4 -12 1 -19z m1973 -3 c-7 -9 -15 -13 -19 -10 -3 3 1 10 9 15 21 14
24 12 10 -5z m547 -23 c-9 -10 -17 -29 -17 -42 0 -25 -31 -99 -41 -100 -4 0
-2 19 3 43 5 23 12 56 15 72 7 38 33 69 47 55 6 -6 4 -16 -7 -28z m2163 -20
c0 -12 -90 -112 -101 -112 -14 0 -79 53 -79 64 0 5 14 6 31 2 42 -8 106 10
122 34 12 20 27 27 27 12z m-4680 -12 c0 -5 -2 -10 -4 -10 -3 0 -8 5 -11 10
-3 6 -1 10 4 10 6 0 11 -4 11 -10z m6160 3 c0 -4 -12 -25 -27 -47 -20 -28 -29
-35 -31 -23 -4 18 34 77 49 77 5 0 9 -3 9 -7z m-3605 -23 c-3 -5 -13 -10 -21
-10 -8 0 -12 5 -9 10 3 6 13 10 21 10 8 0 12 -4 9 -10z m-2570 -49 c3 -5 1
-12 -5 -16 -5 -3 -10 1 -10 9 0 18 6 21 15 7z m6335 -1 c0 -5 -9 -10 -21 -10
-11 0 -17 5 -14 10 3 6 13 10 21 10 8 0 14 -4 14 -10z m2230 -25 c0 -8 -4 -15
-10 -15 -5 0 -10 7 -10 15 0 8 5 15 10 15 6 0 10 -7 10 -15z m-6019 -36 c-21
-19 -29 -33 -24 -45 4 -12 2 -15 -8 -12 -8 2 -15 21 -17 40 -3 33 -1 36 19 31
14 -4 25 0 31 11 5 9 14 14 20 10 6 -4 -3 -18 -21 -35z m3439 6 c0 -17 -4 -23
-15 -19 -11 5 -12 11 -4 25 13 26 19 24 19 -6z m124 0 c16 -24 16 -25 -9 -25
-20 0 -25 5 -25 25 0 14 4 25 9 25 5 0 16 -11 25 -25z m-2494 -4 c0 -5 -7 -14
-15 -21 -16 -14 -18 -10 -9 14 6 17 24 22 24 7z m-4022 -41 c2 -19 11 -40 20
-47 19 -14 10 -17 -35 -13 -16 1 -35 -15 -69 -59 -26 -34 -51 -61 -55 -61 -4
0 -9 -10 -11 -22 -2 -16 -19 -31 -58 -50 -64 -32 -92 -34 -115 -12 -12 13 -19
14 -28 5 -17 -17 -37 -13 -73 14 -18 14 -38 25 -44 25 -15 0 -8 42 8 48 6 2
12 -3 12 -12 0 -9 5 -16 12 -16 6 0 22 -10 35 -21 19 -19 25 -20 38 -9 10 8
14 22 11 34 -3 13 4 32 19 50 21 27 28 29 99 31 83 2 119 19 143 66 7 13 23
26 35 29 16 4 24 14 26 33 5 38 26 29 30 -13z m347 10 c-5 -8 -11 -8 -17 -2
-6 6 -7 16 -3 22 5 8 11 8 17 2 6 -6 7 -16 3 -22z m8600 9 c4 -6 13 -8 21 -5
12 5 12 1 -1 -23 -8 -16 -21 -31 -30 -34 -8 -4 -15 -15 -15 -25 0 -23 -19 -42
-36 -35 -8 3 -28 -7 -46 -23 l-33 -27 -3 24 c-2 13 1 25 7 27 26 9 61 46 61
65 0 12 12 31 28 44 31 25 38 27 47 12z m-8892 -24 c-7 -21 -13 -19 -13 6 0
11 4 18 10 14 5 -3 7 -12 3 -20z m4162 15 c3 -5 -5 -25 -18 -42 -14 -18 -35
-58 -48 -88 -13 -30 -31 -64 -41 -75 -18 -19 -18 -18 -8 15 16 50 91 200 101
200 4 0 11 -4 14 -10z m1595 -10 c0 -5 -4 -10 -10 -10 -5 0 -10 5 -10 10 0 6
5 10 10 10 6 0 10 -4 10 -10z m563 -22 c7 -25 3 -33 -12 -23 -13 8 -15 45 -2
45 5 0 11 -10 14 -22z m1551 -14 c-9 -13 -19 -22 -22 -19 -8 8 20 55 29 49 5
-3 1 -16 -7 -30z m-366 -4 c-7 -11 -16 -16 -21 -11 -12 12 0 31 19 31 12 0 12
-3 2 -20z m-1108 -10 c0 -18 -38 -44 -49 -34 -4 4 39 54 46 54 2 0 3 -9 3 -20z
m-3800 -41 c0 -5 -7 -9 -15 -9 -15 0 -20 12 -9 23 8 8 24 -1 24 -14z m1265 -8
c-8 -17 -19 -33 -25 -36 -5 -3 -10 -17 -10 -31 0 -13 -15 -41 -35 -63 -19 -21
-35 -44 -35 -50 0 -6 -22 -34 -50 -62 -27 -28 -50 -56 -50 -64 0 -13 -28 -30
-43 -26 -10 2 -57 -52 -79 -92 -14 -25 -18 -27 -24 -13 -4 11 6 32 30 63 20
25 36 54 36 64 0 10 9 27 21 38 12 11 19 24 15 29 -9 15 76 87 135 114 33 14
60 58 53 85 -4 14 4 28 26 46 41 35 54 34 35 -2z m124 -8 c-12 -14 -39 -91
-96 -278 -8 -27 -21 -84 -29 -125 -11 -59 -20 -79 -42 -97 -15 -12 -35 -22
-44 -23 -9 0 -20 -4 -23 -10 -3 -5 -15 -10 -25 -10 -10 0 -25 -7 -33 -15 -8
-7 -28 -17 -43 -21 -16 -4 -38 -13 -49 -20 -36 -26 -43 -18 -33 38 14 76 39
118 120 200 73 75 139 160 242 314 33 48 62 82 64 76 2 -7 -2 -20 -9 -29z
m-1132 -5 c-3 -8 -6 -5 -6 6 -1 11 2 17 5 13 3 -3 4 -12 1 -19z m4623 4 c0 -5
-9 -17 -20 -27 -22 -20 -26 -14 -10 16 11 19 30 26 30 11z m1360 -34 c17 -21
18 -25 2 -48 -8 -14 -21 -34 -27 -45 -35 -66 -93 -145 -108 -151 -26 -8 -31 0
-16 27 9 17 9 24 0 27 -19 6 -12 30 24 82 20 28 33 55 30 59 -2 5 8 14 24 21
16 6 31 20 34 31 7 25 15 24 37 -3z m-6257 -20 c-4 -7 -8 -22 -8 -33 0 -11 -8
-21 -17 -23 -13 -2 -15 2 -11 20 9 43 12 48 28 48 11 0 13 -4 8 -12z m312 2
c3 -5 2 -10 -4 -10 -5 0 -13 5 -16 10 -3 6 -2 10 4 10 5 0 13 -4 16 -10z m889
-15 c-4 -8 -10 -15 -15 -15 -5 0 -9 7 -9 15 0 8 7 15 15 15 9 0 12 -6 9 -15z
m-64 -10 c0 -8 -4 -15 -10 -15 -5 0 -7 7 -4 15 4 8 8 15 10 15 2 0 4 -7 4 -15z
m-933 -42 c5 -16 7 -68 7 -118 -2 -82 -5 -97 -40 -170 -20 -44 -48 -91 -60
-105 -12 -14 -24 -34 -26 -45 -2 -12 -13 -21 -26 -23 -20 -3 -22 1 -22 38 0
47 31 152 66 224 13 28 24 57 24 65 0 9 7 29 16 46 8 16 18 48 21 72 7 49 28
58 40 16z m3023 19 c0 -13 -12 -22 -22 -16 -10 6 -1 24 13 24 5 0 9 -4 9 -8z
m-5420 -19 c0 -10 -4 -24 -9 -32 -6 -9 -5 -24 0 -39 11 -29 1 -172 -12 -172
-5 0 -9 14 -9 30 0 17 -5 30 -12 30 -9 0 -9 3 0 12 14 14 16 68 3 68 -18 0
-22 40 -7 62 9 12 16 30 16 40 0 10 7 18 15 18 8 0 15 -8 15 -17z m2527 -35
c-4 -51 21 -130 30 -100 3 6 9 12 14 12 19 0 8 -16 -22 -34 -27 -16 -30 -23
-25 -48 4 -20 1 -30 -9 -34 -8 -4 -15 -14 -15 -24 0 -19 -17 -36 -26 -27 -2 2
1 17 8 33 17 41 19 59 23 154 4 119 4 120 15 120 6 0 9 -22 7 -52z m1125 0
c-7 -7 -12 -8 -12 -2 0 14 12 26 19 19 2 -3 -1 -11 -7 -17z m-1487 1 c11 -17
-1 -21 -15 -4 -8 9 -8 15 -2 15 6 0 14 -5 17 -11z m1650 -8 c-3 -6 -11 -11
-17 -11 -6 0 -6 6 2 15 14 17 26 13 15 -4z m2112 -21 c-5 -46 -14 -60 -23 -36
-6 15 12 76 23 76 2 0 2 -18 0 -40z m-4137 13 c0 -22 -17 -49 -25 -41 -8 8 5
58 16 58 5 0 9 -8 9 -17z m5230 -58 c-11 -13 -10 -18 6 -30 18 -14 18 -14 -2
-15 -11 0 -29 9 -38 19 -17 18 -17 20 4 41 26 26 53 12 30 -15z m-7400 21 c0
-3 -4 -8 -10 -11 -5 -3 -10 -1 -10 4 0 6 5 11 10 11 6 0 10 -2 10 -4z m4020
-21 c0 -14 -4 -25 -10 -25 -11 0 -14 33 -3 43 11 11 13 8 13 -18z m4626 -144
c-9 -10 -16 -23 -16 -29 0 -6 -8 -26 -18 -44 -10 -18 -24 -59 -31 -90 -7 -32
-17 -58 -22 -58 -18 0 -9 72 17 125 14 30 27 65 28 77 4 25 12 50 29 88 6 14
12 30 13 35 5 31 8 24 11 -29 3 -43 0 -63 -11 -75z m-8653 86 c-3 -5 -10 -4
-15 1 -6 6 -7 16 -3 22 6 9 9 9 16 -1 4 -7 5 -17 2 -22z m2127 8 c0 -14 -2
-25 -4 -25 -2 0 -6 11 -8 25 -3 14 -1 25 3 25 5 0 9 -11 9 -25z m4193 0 c9
-23 -11 -28 -23 -5 -8 16 -8 20 4 20 7 0 16 -7 19 -15z m-74 -37 c-1 -13 3
-36 9 -51 16 -38 15 -43 -10 -67 -13 -12 -23 -33 -23 -47 0 -14 -6 -28 -13
-31 -11 -3 -12 0 -3 16 15 29 2 34 -29 12 -16 -11 -33 -20 -39 -20 -6 0 -11
-7 -11 -15 0 -8 7 -15 16 -15 14 0 14 -3 4 -15 -7 -8 -21 -15 -32 -15 -18 0
-19 5 -13 42 8 43 64 132 91 142 10 4 14 16 12 36 -2 19 3 34 12 40 24 15 32
12 29 -12z m2451 12 c0 -5 -5 -10 -11 -10 -5 0 -7 5 -4 10 3 6 8 10 11 10 2 0
4 -4 4 -10z m-4710 -41 c-7 -11 -14 -18 -17 -15 -3 3 0 12 7 21 18 21 23 19
10 -6z m-1460 -46 c0 -5 -5 -15 -10 -23 -8 -12 -10 -11 -10 8 0 12 5 22 10 22
6 0 10 -3 10 -7z m7310 -43 c0 -5 -9 -10 -21 -10 -11 0 -17 5 -14 10 3 6 13
10 21 10 8 0 14 -4 14 -10z m133 -30 c-6 -22 -33 -28 -33 -7 0 16 21 38 31 32
4 -3 5 -14 2 -25z m-7473 10 c0 -5 -2 -10 -4 -10 -3 0 -8 5 -11 10 -3 6 -1 10
4 10 6 0 11 -4 11 -10z m-2135 -95 c-6 -48 -13 -159 -15 -240 0 -41 -20 -71
-20 -32 0 15 -7 30 -15 33 -8 4 -15 10 -15 15 0 5 7 9 15 9 19 0 19 10 0 46
-13 25 -13 29 0 37 17 9 22 127 5 127 -10 0 -14 42 -6 51 2 2 16 5 31 5 26 2
26 2 20 -51z m4312 36 c14 -23 5 -35 -14 -20 -14 12 -18 39 -5 39 4 0 13 -9
19 -19z m790 -23 c-3 -8 -6 -5 -6 6 -1 11 2 17 5 13 3 -3 4 -12 1 -19z m-2957
-32 c0 -14 -4 -28 -10 -31 -5 -3 -10 -3 -10 2 0 4 -3 18 -6 31 -5 16 -2 22 10
22 10 0 16 -9 16 -24z m-540 -43 c0 -13 -48 -68 -53 -63 -10 10 22 70 38 70 8
0 15 -3 15 -7z m6586 -70 c-3 -8 -10 -11 -16 -8 -14 9 -12 59 3 74 10 10 13 6
15 -19 2 -18 1 -39 -2 -47z m1299 67 c-3 -5 -11 -10 -16 -10 -6 0 -7 5 -4 10
3 6 11 10 16 10 6 0 7 -4 4 -10z m-7868 -32 c-3 -7 -5 -2 -5 12 0 14 2 19 5
13 2 -7 2 -19 0 -25z m1678 -27 c-3 -6 -11 -11 -17 -11 -6 0 -6 6 2 15 14 17
26 13 15 -4z m-1065 -25 c0 -16 -27 -29 -41 -20 -13 8 9 34 27 34 8 0 14 -6
14 -14z m-714 -53 c-11 -11 -17 4 -9 23 7 18 8 18 11 1 2 -10 1 -21 -2 -24z
m624 29 c0 -11 -41 -54 -46 -49 -9 8 19 57 33 57 7 0 13 -4 13 -8z m4886 -17
c9 -14 24 -25 34 -25 10 0 22 -9 25 -21 14 -42 125 -135 150 -125 11 4 14 13
9 30 -7 31 14 46 32 22 11 -16 19 -17 65 -7 28 6 54 10 56 8 7 -8 -34 -36 -74
-50 -36 -12 -43 -12 -43 -1 0 8 -5 14 -10 14 -6 0 -10 -8 -8 -17 4 -20 -93
-54 -160 -55 -23 -1 -46 -6 -51 -12 -6 -7 -45 -10 -103 -9 -133 2 -168 10
-168 39 0 8 -5 14 -11 14 -8 0 -8 4 0 14 13 16 -2 32 -19 21 -15 -9 -12 -31 5
-45 11 -9 13 -16 6 -23 -12 -12 -37 6 -46 33 -3 10 -14 20 -25 23 -25 6 -36
35 -21 50 10 9 16 8 26 -7 12 -16 17 -17 30 -6 15 13 15 15 -5 30 -33 25 -17
48 30 46 22 -1 42 -5 46 -9 14 -13 104 -7 139 10 36 17 38 23 20 66 -12 30 51
23 71 -8z m464 -35 c-6 -11 -13 -20 -15 -20 -3 0 -5 9 -5 20 0 11 7 20 15 20
13 0 14 -4 5 -20z m-790 0 c0 -5 -5 -10 -11 -10 -5 0 -7 5 -4 10 3 6 8 10 11
10 2 0 4 -4 4 -10z m132 -18 c-27 -4 -37 2 -27 17 4 8 13 7 28 -1 l22 -13 -23
-3z m-287 -88 c21 -25 50 -50 62 -55 l23 -8 -21 -35 c-11 -20 -49 -53 -87 -77
l-67 -43 -100 0 c-113 1 -225 24 -240 50 -5 9 -20 32 -32 51 -28 41 -29 55 -5
75 27 24 55 31 48 13 -3 -8 -9 -22 -12 -30 -9 -21 10 -19 31 5 20 22 62 18 81
-9 10 -13 14 -13 29 -1 9 8 33 13 52 12 40 -3 42 18 2 29 -17 5 -11 7 24 8 41
1 50 -2 54 -19 3 -11 9 -20 14 -20 17 0 49 40 49 60 0 17 25 37 50 39 3 1 23
-20 45 -45z m-6585 15 c0 -11 -27 -12 -34 0 -3 4 -3 11 0 14 8 8 34 -3 34 -14z
m2794 -64 c4 -36 3 -44 -4 -27 -16 37 -22 25 -18 -35 3 -56 2 -58 -22 -58 -18
0 -26 -6 -28 -23 -2 -12 -7 -22 -12 -22 -5 0 -36 -25 -69 -56 -33 -30 -65 -53
-70 -50 -5 4 -13 1 -16 -4 -4 -6 -17 -15 -28 -21 -12 -5 -29 -13 -37 -18 -8
-5 -40 -19 -70 -32 -30 -13 -62 -28 -70 -35 -8 -6 -35 -15 -60 -19 -25 -4 -51
-12 -58 -17 -7 -6 -32 -8 -57 -5 -36 5 -45 4 -45 -8 0 -15 -28 -19 -92 -15
-14 1 -29 -3 -33 -9 -11 -18 -88 -12 -122 9 -19 11 -35 31 -39 47 -3 15 -10
41 -16 56 -8 20 -8 31 0 39 12 12 26 -11 36 -61 3 -19 11 -40 17 -48 13 -14
69 -18 69 -4 0 15 -29 33 -45 27 -10 -4 -15 1 -15 14 0 27 35 26 58 -2 35 -44
52 -58 70 -58 16 1 16 1 0 11 -10 5 -18 19 -18 30 0 15 5 18 24 13 27 -6 44
12 27 29 -6 6 -11 18 -11 27 1 13 2 13 10 -2 13 -21 68 -34 83 -19 16 16 30
14 24 -3 -3 -8 2 -21 12 -30 22 -20 29 -20 27 1 -1 20 51 34 98 26 19 -3 39 1
51 11 19 15 19 15 -7 16 -15 0 -30 5 -33 11 -5 7 -14 4 -26 -7 -13 -12 -23
-14 -29 -8 -7 7 0 20 20 39 29 27 30 28 49 11 21 -19 46 -13 37 9 -6 15 16 36
63 60 l34 17 -5 -31 c-2 -17 -1 -31 3 -31 10 0 34 63 31 82 -2 10 9 23 27 33
34 17 41 7 12 -19 -12 -11 -16 -25 -13 -42 l4 -25 34 35 c21 22 34 45 34 61 0
22 3 24 17 16 14 -7 26 0 58 32 22 23 48 42 59 42 23 0 47 35 29 42 -7 3 -13
12 -13 20 0 10 6 13 16 9 11 -4 18 1 21 15 8 30 20 10 27 -46z m5566 35 c0 -5
-2 -10 -4 -10 -3 0 -8 5 -11 10 -3 6 -1 10 4 10 6 0 11 -4 11 -10z m-8360 -45
c0 -24 -5 -35 -15 -35 -11 0 -12 -5 -5 -25 11 -28 3 -58 -14 -52 -15 5 -12
113 4 132 20 24 30 18 30 -20z m7654 19 c10 -25 7 -34 -9 -34 -9 0 -15 9 -15
25 0 28 15 34 24 9z m-8053 -31 c-8 -15 -10 -15 -11 -2 0 17 10 32 18 25 2 -3
-1 -13 -7 -23z m6339 -13 c-31 -25 -33 -30 -17 -36 12 -4 26 1 40 13 12 11 41
23 64 26 39 5 42 3 33 -13 -25 -47 -246 -190 -294 -190 -10 0 -30 -6 -44 -13
-15 -8 -42 -21 -60 -30 -19 -9 -52 -17 -75 -17 -23 0 -48 -4 -54 -8 -14 -9
-205 19 -245 36 -19 8 -29 21 -34 47 -3 20 -12 35 -20 35 -18 0 -17 20 0 43
16 21 26 22 26 3 0 -20 21 -31 30 -17 5 9 11 7 21 -5 12 -16 12 -17 -4 -11
-12 5 -17 3 -15 -5 3 -7 32 -13 73 -15 37 -2 76 -8 86 -14 13 -7 20 -5 27 7 6
11 11 13 16 5 10 -16 26 -14 26 4 0 9 -12 27 -27 41 -30 28 -29 31 15 40 l32
6 -3 -50 c-3 -52 7 -68 37 -56 8 3 17 0 21 -5 12 -21 22 -2 19 36 -2 32 2 42
29 65 18 15 38 27 45 28 15 0 16 -22 0 -38 -9 -9 -8 -12 4 -12 10 0 19 13 25
37 7 32 12 37 39 37 16 0 38 -3 48 -7 18 -7 56 10 105 46 13 9 33 17 45 17 18
-1 17 -4 -14 -30z m1647 -11 c-4 -31 -2 -42 10 -46 9 -4 21 1 28 10 7 10 15
17 19 17 9 0 7 -35 -3 -62 -5 -13 -17 -57 -26 -98 -10 -41 -24 -86 -32 -99
-15 -23 -49 -136 -74 -241 -7 -30 -16 -59 -19 -65 -10 -14 -47 -143 -55 -190
-3 -22 -12 -67 -20 -100 -7 -33 -19 -86 -26 -117 -7 -32 -15 -58 -19 -58 -9 0
5 115 22 185 19 74 43 182 57 255 30 152 41 201 60 271 11 42 20 89 20 105 -1
16 4 61 10 99 20 121 62 239 48 134z m-3267 14 c0 -14 9 -18 36 -20 30 -1 34
1 29 18 -8 24 7 25 29 0 22 -24 12 -71 -14 -71 -10 0 -20 -3 -22 -8 -9 -22
-110 -94 -144 -103 -22 -6 -52 -17 -69 -24 -59 -25 -151 -44 -195 -40 -143 14
-241 49 -254 93 -4 11 -2 32 4 47 8 21 13 25 24 16 7 -6 21 -9 30 -5 10 4 19
-2 27 -19 10 -23 14 -24 46 -14 20 6 38 20 43 33 10 24 67 38 88 22 8 -8 12
-6 12 5 0 16 -20 27 -50 27 -20 0 -46 27 -36 37 3 3 17 0 31 -7 19 -10 28 -10
38 -1 12 9 16 8 20 -3 5 -12 16 -11 72 6 53 16 69 18 75 8 6 -10 15 -10 41 -1
23 8 36 8 43 1 8 -8 7 -13 -3 -19 -10 -7 -10 -10 -1 -16 7 -4 15 -2 19 4 4 6
15 9 24 5 11 -4 17 -1 17 8 0 15 19 38 32 38 4 0 8 -8 8 -17z m160 -19 c0 -15
6 -24 15 -24 8 0 15 -5 15 -11 0 -6 -12 -9 -26 -7 -21 2 -28 9 -30 32 -2 16
-1 33 2 38 9 15 24 -2 24 -28z m4924 11 c-4 -8 -10 -12 -15 -9 -11 6 -2 24 11
24 5 0 7 -7 4 -15z m-9804 -72 c-3 -25 -11 -48 -17 -51 -16 -5 -16 11 -2 61
14 52 26 46 19 -10z m3230 22 c7 -9 10 -18 7 -22 -8 -7 -37 15 -37 28 0 14 16
11 30 -6z m1746 -10 c4 -8 14 -15 24 -15 11 0 22 -5 25 -10 4 -6 22 -17 41
-25 27 -11 35 -20 32 -36 -3 -18 3 -21 45 -24 27 -1 47 2 47 7 0 6 6 5 15 -2
12 -10 15 -10 15 0 0 16 29 50 42 50 5 0 6 -5 3 -10 -4 -6 -1 -17 5 -25 18
-21 5 -43 -27 -47 -17 -2 -28 -9 -28 -18 0 -10 8 -14 27 -12 14 1 29 -2 33 -8
11 -18 23 -11 18 10 -4 15 0 20 14 20 14 0 22 10 29 42 l9 42 55 -3 c30 -1 59
-7 64 -12 6 -5 20 -9 32 -9 35 0 20 -31 -40 -83 -53 -46 -124 -77 -186 -81
-19 -2 -43 -7 -54 -11 -10 -4 -21 -4 -25 1 -3 6 -25 16 -49 24 -23 7 -66 28
-95 45 -51 31 -52 32 -50 79 1 37 -3 52 -23 71 -25 25 -32 55 -14 55 6 0 13
-7 16 -15z m549 -15 c-3 -5 -13 -10 -21 -10 -8 0 -12 5 -9 10 3 6 13 10 21 10
8 0 12 -4 9 -10z m4217 -17 c-14 -26 -52 -59 -52 -45 0 13 53 73 58 67 2 -2
-1 -12 -6 -22z m-5697 6 c11 -17 -1 -21 -15 -4 -8 9 -8 15 -2 15 6 0 14 -5 17
-11z m1405 -4 c0 -8 -9 -15 -20 -15 -13 0 -18 5 -14 15 4 8 12 15 20 15 8 0
14 -7 14 -15z m-3210 -20 c7 -14 11 -27 9 -29 -9 -9 -52 32 -45 43 11 17 21
13 36 -14z m2700 -1 c0 -8 -4 -12 -10 -9 -5 3 -10 13 -10 21 0 8 5 12 10 9 6
-3 10 -13 10 -21z m1050 6 c0 -5 -5 -10 -11 -10 -5 0 -7 5 -4 10 3 6 8 10 11
10 2 0 4 -4 4 -10z m-5620 -30 c-23 -32 -43 -35 -48 -7 -2 10 3 17 12 17 9 0
16 5 16 10 0 6 9 10 21 10 l20 0 -21 -30z m2930 -16 c0 -33 -33 -32 -48 1 -7
14 -12 27 -12 29 0 1 14 1 30 -2 24 -3 30 -9 30 -28z m360 21 c-7 -9 -15 -13
-17 -11 -7 7 7 26 19 26 6 0 6 -6 -2 -15z m1920 -5 c0 -5 -5 -10 -11 -10 -5 0
-7 5 -4 10 3 6 8 10 11 10 2 0 4 -4 4 -10z m-612 -29 c3 -8 -1 -12 -9 -9 -7 2
-15 10 -17 17 -3 8 1 12 9 9 7 -2 15 -10 17 -17z m-1258 0 c0 -5 -7 -12 -16
-15 -24 -9 -28 -7 -14 9 14 17 30 20 30 6z m5971 -18 c-7 -14 -75 -97 -107
-132 -8 -8 -34 23 -34 40 0 22 11 24 28 7 10 -10 14 -8 18 9 3 12 24 34 45 49
21 15 39 31 39 35 0 5 5 9 10 9 7 0 7 -6 1 -17z m-9315 -17 c6 -15 -30 -106
-41 -106 -4 0 -1 91 4 118 2 9 33 -1 37 -12z m2981 -15 c-6 -23 21 -38 29 -16
8 20 31 19 43 -2 9 -17 11 -16 30 1 12 11 24 17 27 14 3 -3 -5 -15 -17 -27
-16 -15 -26 -18 -35 -10 -7 6 -23 9 -36 7 -17 -2 -22 -9 -21 -26 4 -32 -18
-27 -49 12 -33 41 -35 53 -10 59 36 10 44 7 39 -12z m461 8 c26 1 30 -14 5
-23 -10 -3 -38 -18 -62 -32 -24 -14 -64 -28 -89 -31 -25 -2 -51 -8 -58 -14 -6
-5 -19 -7 -28 -3 -9 3 -22 2 -29 -4 -6 -5 -31 -7 -55 -3 -42 6 -42 6 -26 29
10 15 23 22 35 19 21 -6 61 21 42 29 -15 7 -5 34 13 34 8 0 14 -10 14 -22 0
-21 5 -23 50 -23 27 1 55 6 62 13 7 7 20 12 29 12 9 0 22 7 29 15 8 9 20 13
29 9 9 -4 26 -6 39 -5z m-1581 -31 c-3 -8 -6 -5 -6 6 -1 11 2 17 5 13 3 -3 4
-12 1 -19z m61 -10 c16 -16 15 -38 -2 -38 -13 0 -26 20 -26 41 0 13 14 11 28
-3z m212 -8 c0 -5 -5 -10 -11 -10 -5 0 -7 5 -4 10 3 6 8 10 11 10 2 0 4 -4 4
-10z m-530 -39 c0 -12 -20 -25 -27 -18 -7 7 6 27 18 27 5 0 9 -4 9 -9z m7570
-35 c0 -18 -68 -72 -78 -62 -3 4 11 23 33 41 47 40 45 39 45 21z m-9585 -6 c3
-5 -1 -10 -9 -10 -9 0 -16 5 -16 10 0 6 4 10 9 10 6 0 13 -4 16 -10z m1279
-64 c-4 -10 -17 -16 -35 -16 -16 0 -29 -4 -29 -9 0 -11 -91 -55 -132 -65 -15
-3 -29 -2 -33 3 -3 6 -20 4 -42 -5 -23 -10 -39 -12 -45 -6 -21 21 59 43 95 27
11 -5 24 -2 36 9 10 9 28 16 40 16 12 0 37 11 54 24 29 21 88 47 95 41 1 -1 0
-10 -4 -19z m-914 -33 c0 -10 -4 -24 -9 -32 -12 -19 -24 3 -16 29 8 25 25 26
25 3z m8140 -13 c0 -26 35 -53 60 -45 20 6 20 8 5 25 -34 37 -4 37 36 0 29
-27 39 -42 33 -51 -5 -8 -9 -18 -9 -24 0 -5 -10 -9 -22 -8 -23 3 -23 1 -39
-122 -3 -27 -12 -73 -19 -102 -8 -28 -11 -61 -8 -72 5 -19 -22 -113 -39 -137
-5 -7 -6 -47 -2 -90 5 -68 2 -95 -24 -194 -17 -63 -36 -151 -42 -194 -7 -44
-17 -91 -23 -105 -5 -14 -13 -53 -17 -86 -7 -56 -14 -96 -42 -235 -6 -30 -18
-60 -26 -67 -7 -6 -15 -24 -17 -40 -7 -52 -17 -88 -42 -143 -26 -57 -107 -150
-131 -150 -8 0 -28 -10 -44 -22 -18 -12 -70 -29 -127 -40 -115 -22 -100 -22
-185 -8 -70 11 -95 27 -96 63 0 10 -7 31 -15 48 -14 26 -14 30 0 35 8 3 15 13
15 21 0 9 -6 13 -14 10 -16 -6 -26 32 -26 102 l0 46 31 -38 32 -38 31 30 c31
30 66 41 66 21 0 -5 -4 -10 -10 -10 -5 0 -14 -9 -20 -21 -14 -26 11 -69 40
-69 15 0 20 -7 20 -24 0 -31 16 -42 36 -25 15 12 15 35 -1 72 -5 13 -2 17 14
17 12 0 21 6 21 15 0 23 47 42 63 25 9 -10 9 -13 0 -17 -15 -5 -18 -79 -4 -88
5 -3 7 -30 4 -60 -6 -59 3 -69 41 -40 14 11 16 18 8 27 -5 7 -10 24 -9 38 0
14 -2 32 -4 40 -3 10 3 14 15 13 11 -1 25 5 33 13 8 8 25 14 38 14 13 0 28 7
32 15 5 8 17 16 29 17 11 2 30 14 42 26 12 12 29 22 37 22 8 0 15 9 15 20 0
11 7 20 15 20 9 0 18 12 22 30 3 17 10 33 14 36 12 7 12 44 0 44 -16 0 -19 26
-10 110 7 69 6 86 -6 93 -10 5 -13 20 -10 47 5 51 12 62 36 55 22 -7 26 13 4
21 -22 9 -15 70 8 66 11 -2 17 4 17 18 0 11 -6 20 -14 20 -19 0 -24 20 -27
100 -2 45 2 74 13 95 9 17 20 49 24 70 7 41 30 85 44 85 5 0 13 -14 19 -32 14
-41 25 -30 13 13 -7 29 -13 34 -35 32 -23 -1 -26 2 -23 26 2 16 7 34 12 42 4
8 9 21 9 29 1 8 2 25 3 38 3 30 28 28 48 -4 9 -14 20 -21 25 -17 13 14 -3 65
-22 70 -27 7 -29 51 -7 156 10 49 9 60 -2 67 -12 7 -11 12 3 28 10 11 19 39
21 63 4 49 12 93 28 156 7 29 14 40 24 36 8 -3 14 -13 14 -23z m-10084 -8 c12
-10 25 -29 29 -42 8 -24 7 -24 -18 -7 -35 22 -47 21 -47 -4 0 -12 -5 -19 -12
-16 -16 5 -14 53 3 73 15 18 19 17 45 -4z m1144 -11 c0 -11 -39 -21 -45 -11
-2 4 -2 10 2 14 10 9 43 7 43 -3z m50 -11 c0 -5 -4 -10 -10 -10 -5 0 -10 5
-10 10 0 6 5 10 10 10 6 0 10 -4 10 -10z m54 1 c3 -5 -1 -12 -10 -15 -25 -10
-34 -7 -34 9 0 16 35 21 44 6z m769 -27 c11 -11 -3 -24 -18 -18 -8 4 -12 10
-9 15 6 11 18 12 27 3z m404 -8 c12 -12 -2 -14 -100 -19 -87 -5 -100 -8 -117
-29 l-19 -23 -1 28 c0 17 -5 27 -15 27 -8 0 -15 -6 -15 -14 0 -17 -25 -27 -46
-19 -14 5 -12 8 7 19 24 13 24 13 2 14 -12 0 -24 4 -28 10 -10 16 315 23 332
6z m113 -26 c0 -5 -5 -10 -11 -10 -5 0 -7 5 -4 10 3 6 8 10 11 10 2 0 4 -4 4
-10z m-1445 -10 c3 -5 1 -10 -4 -10 -6 0 -11 5 -11 10 0 6 2 10 4 10 3 0 8 -4
11 -10z m8435 -219 c0 -11 -4 -23 -10 -26 -6 -4 -10 5 -10 19 0 14 5 26 10 26
6 0 10 -9 10 -19z m-8585 -69 c-3 -3 -11 0 -18 7 -9 10 -8 11 6 5 10 -3 15 -9
12 -12z m342 -57 c3 -9 3 -18 0 -21 -6 -7 -47 18 -47 28 0 15 41 8 47 -7z
m933 -6 c0 -5 -4 -9 -10 -9 -5 0 -10 7 -10 16 0 8 5 12 10 9 6 -3 10 -10 10
-16z m7345 -49 c3 -5 -1 -10 -9 -10 -9 0 -16 5 -16 10 0 6 4 10 9 10 6 0 13
-4 16 -10z m-8510 -29 c33 -11 96 -25 140 -31 44 -6 95 -16 113 -21 32 -11 32
-11 26 -62 -3 -29 -14 -81 -24 -117 -10 -36 -24 -99 -30 -140 -7 -41 -20 -88
-30 -105 -9 -16 -20 -42 -24 -57 -8 -34 -17 -35 -35 -5 -18 27 -81 188 -81
204 0 6 -6 24 -14 40 -8 15 -22 46 -31 68 -21 50 -43 102 -61 138 -18 36 -29
107 -18 107 5 0 36 -9 69 -19z m915 -7 c0 -3 -6 -20 -14 -37 -8 -18 -16 -40
-20 -49 -3 -11 -15 -18 -32 -18 -26 0 -26 -1 -21 -47 4 -27 0 -79 -7 -118 -25
-127 -48 -229 -67 -295 -10 -36 -21 -85 -24 -110 -3 -25 -7 -52 -10 -60 -3 -8
-7 -32 -9 -53 -3 -21 -10 -53 -15 -70 -22 -71 -60 -235 -66 -287 -4 -30 -18
-93 -31 -140 -13 -46 -24 -97 -24 -112 0 -25 -19 -75 -56 -151 -8 -16 -14 -36
-14 -46 0 -26 -22 -49 -50 -53 -37 -5 -36 24 1 66 21 25 30 43 26 57 -3 11 3
46 13 77 11 32 29 91 40 132 12 41 26 89 31 106 16 53 12 84 -11 84 -25 0 -25
12 -1 79 12 34 27 57 42 65 26 13 29 37 15 111 -6 34 -3 47 18 78 28 40 25 69
-9 97 -16 14 -17 13 -11 -7 10 -32 -12 -38 -25 -6 -7 20 -7 33 0 45 7 12 8 26
1 43 -19 50 -9 59 29 24 19 -18 25 -19 32 -8 5 8 9 21 10 29 1 8 2 21 3 28 0
7 7 16 15 21 7 5 17 26 21 47 5 22 12 50 16 64 l7 25 -23 -20 -23 -20 6 25 c4
14 7 37 7 53 0 15 6 27 13 27 20 0 47 55 47 97 0 22 3 43 7 47 4 4 8 29 8 54
l0 47 51 3 c52 3 60 10 78 65 5 16 26 25 26 11z m-95 -24 c3 -5 -1 -10 -9 -10
-9 0 -16 5 -16 10 0 6 4 10 9 10 6 0 13 -4 16 -10z m7586 -83 c-8 -8 -11 -7
-11 4 0 20 13 34 18 19 3 -7 -1 -17 -7 -23z m7 -85 c-8 -9 -6 -17 6 -30 21
-24 20 -32 -2 -32 -24 0 -65 -110 -44 -117 14 -5 17 -43 2 -43 -5 0 -13 -12
-16 -27 -4 -16 -15 -39 -26 -52 -10 -13 -18 -29 -18 -36 0 -7 -7 -18 -15 -25
-19 -16 -19 -12 5 57 10 32 21 87 24 123 6 72 31 193 48 224 10 19 11 19 29
-5 13 -17 15 -27 7 -37z m-7958 2 c0 -8 -5 -12 -10 -9 -6 4 -8 11 -5 16 9 14
15 11 15 -7z m8000 6 c0 -5 -2 -10 -4 -10 -3 0 -8 5 -11 10 -3 6 -1 10 4 10 6
0 11 -4 11 -10z m-7750 -92 c0 -16 -3 -19 -11 -11 -6 6 -8 16 -5 22 11 17 16
13 16 -11z m7719 -45 c0 -25 -1 -25 -8 -8 -5 11 -7 23 -4 28 8 14 13 7 12 -20z
m-8425 -249 c4 -10 1 -14 -6 -12 -15 5 -23 28 -10 28 5 0 13 -7 16 -16z m8284
-60 c2 -17 -4 -43 -12 -59 -16 -30 -16 -29 -13 33 2 63 19 81 25 26z m56 -80
c22 -9 20 -27 -5 -42 -26 -17 -29 -14 -22 21 6 30 5 29 27 21z m-88 -73 c-4
-33 -14 -73 -22 -90 -21 -42 -28 -121 -11 -121 7 0 18 5 25 12 17 17 28 1 15
-21 -7 -10 -9 -28 -6 -40 5 -21 -11 -51 -28 -51 -5 0 -9 14 -9 30 0 19 -5 30
-14 30 -20 0 -33 95 -16 115 7 9 14 44 15 80 2 52 7 69 26 89 13 14 26 26 28
26 2 0 1 -27 -3 -59z m39 -92 c-19 -35 -19 -39 0 -39 29 0 11 -36 -20 -42 -17
-2 -20 3 -23 40 -2 32 1 44 13 48 13 5 14 9 4 15 -10 6 -10 11 1 24 13 16 15
16 27 0 10 -14 9 -23 -2 -46z m-7699 -44 c-7 -29 -26 -34 -26 -7 0 18 20 45
28 37 2 -2 2 -16 -2 -30z m-781 -126 c6 -19 0 -38 -9 -28 -10 12 -16 49 -7 49
5 0 13 -9 16 -21z m696 -6 c-5 -10 -12 -26 -15 -35 -9 -30 -27 -21 -20 10 9
37 13 42 30 42 10 0 12 -5 5 -17z m-238 -623 c12 -11 27 -18 33 -16 7 3 15 -5
18 -17 3 -12 4 -21 3 -22 -1 0 -14 -10 -28 -23 l-26 -23 2 41 c2 27 -2 40 -11
40 -18 0 -27 -35 -15 -58 7 -12 7 -22 0 -29 -11 -11 -2 -43 13 -43 5 0 6 -4 3
-10 -3 -5 -16 -10 -27 -10 -18 0 -20 4 -15 34 4 23 1 36 -7 39 -17 7 -12 59 9
91 21 31 20 31 48 6z m-219 -65 c-5 -11 3 -17 26 -21 22 -5 39 -19 58 -46 14
-22 36 -44 49 -49 23 -9 33 -39 12 -39 -6 0 -28 17 -49 38 -21 20 -54 50 -74
65 -33 26 -49 67 -26 67 5 0 7 -7 4 -15z"/>
<path d="M16415 10310 c-3 -5 -2 -10 4 -10 5 0 13 5 16 10 3 6 2 10 -4 10 -5
0 -13 -4 -16 -10z"/>
<path d="M16689 10039 c-12 -12 -14 -20 -6 -28 19 -19 37 -12 37 13 0 32 -11
37 -31 15z"/>
<path d="M6960 8753 c0 -10 5 -25 10 -33 7 -11 10 -7 10 18 0 17 -4 32 -10 32
-5 0 -10 -8 -10 -17z"/>
<path d="M6970 8650 c0 -19 3 -21 12 -12 9 9 9 15 0 24 -9 9 -12 7 -12 -12z"/>
<path d="M6982 8539 c-1 -9 -9 -19 -17 -23 -16 -6 -21 -66 -5 -66 16 0 31 40
27 73 -2 18 -5 25 -5 16z"/>
<path d="M6961 8416 c-8 -9 -11 -19 -7 -23 9 -9 29 13 24 27 -2 8 -8 7 -17 -4z"/>
<path d="M6992 8310 c0 -19 2 -27 5 -17 2 9 2 25 0 35 -3 9 -5 1 -5 -18z"/>
<path d="M6971 7794 c0 -11 3 -14 6 -6 3 7 2 16 -1 19 -3 4 -6 -2 -5 -13z"/>
<path d="M7360 8590 c0 -5 5 -10 10 -10 6 0 10 5 10 10 0 6 -4 10 -10 10 -5 0
-10 -4 -10 -10z"/>
<path d="M7448 8579 c-6 -18 2 -49 12 -49 15 0 19 28 6 46 -11 14 -14 15 -18
3z"/>
<path d="M7434 8436 c-9 -24 3 -47 21 -40 18 7 16 45 -2 52 -7 2 -16 -3 -19
-12z"/>
<path d="M7395 8229 c-5 -7 1 -88 6 -93 2 -2 17 -6 32 -10 24 -6 28 -4 25 11
-2 11 -12 17 -24 16 -17 -2 -21 4 -21 27 0 22 5 30 19 30 10 0 18 6 18 14 0
13 -48 18 -55 5z"/>
<path d="M7470 8074 c0 -8 5 -12 10 -9 6 4 8 11 5 16 -9 14 -15 11 -15 -7z"/>
<path d="M7392 8011 c2 -7 7 -12 11 -12 12 1 9 15 -3 20 -7 2 -11 -2 -8 -8z"/>
<path d="M7425 7878 c-4 -14 -5 -39 -3 -54 4 -27 5 -26 17 15 8 29 9 47 2 54
-7 7 -12 2 -16 -15z"/>
<path d="M7410 7727 c0 -8 -3 -22 -6 -31 -4 -10 -1 -16 8 -16 8 0 13 10 13 25
-2 27 -15 48 -15 22z"/>
<path d="M7415 7550 c3 -5 14 -10 23 -10 15 0 15 2 2 10 -20 13 -33 13 -25 0z"/>
<path d="M7376 7514 c-7 -18 0 -34 15 -34 5 0 9 11 9 25 0 28 -15 34 -24 9z"/>
<path d="M7437 7486 c-4 -10 -7 -32 -6 -49 1 -31 1 -31 10 7 10 43 7 72 -4 42z"/>
<path d="M7345 7139 c-4 -6 0 -18 9 -27 15 -15 16 -15 16 5 0 25 -15 38 -25
22z"/>
<path d="M7337 7056 c-10 -25 -9 -56 2 -56 12 0 19 32 11 54 -6 18 -7 18 -13
2z"/>
<path d="M7327 6861 c-8 -38 -2 -50 14 -34 8 8 8 20 2 39 l-10 29 -6 -34z"/>
<path d="M7296 6744 c-8 -41 -4 -49 19 -40 11 4 15 16 13 38 -4 44 -24 46 -32
2z"/>
<path d="M7255 6497 c-4 -10 -5 -21 -1 -24 10 -10 18 4 13 24 -4 17 -4 17 -12
0z"/>
<path d="M13950 3784 c-9 -10 -10 -18 -2 -26 12 -12 32 -2 32 17 0 21 -16 26
-30 9z"/>
<path d="M13490 3040 c0 -5 5 -10 10 -10 6 0 10 5 10 10 0 6 -4 10 -10 10 -5
0 -10 -4 -10 -10z"/>
<path d="M13226 3011 c-4 -5 -2 -12 3 -15 5 -4 12 -2 15 3 4 5 2 12 -3 15 -5
4 -12 2 -15 -3z"/>
<path d="M8795 2570 c-3 -5 -1 -10 4 -10 6 0 11 5 11 10 0 6 -2 10 -4 10 -3 0
-8 -4 -11 -10z"/>
<path d="M10737 2853 c-4 -3 -7 -11 -7 -17 0 -6 5 -5 12 2 6 6 9 14 7 17 -3 3
-9 2 -12 -2z"/>
<path d="M10610 2820 c0 -5 4 -10 9 -10 6 0 13 5 16 10 3 6 -1 10 -9 10 -9 0
-16 -4 -16 -10z"/>
<path d="M11345 2767 c-12 -15 -18 -80 -6 -73 5 3 11 16 14 28 2 13 8 31 12
41 8 19 -5 22 -20 4z"/>
<path d="M14722 2199 c-14 -22 -10 -35 6 -25 12 7 23 46 13 46 -3 0 -12 -9
-19 -21z"/>
<path d="M14682 2068 c-8 -8 -6 -18 5 -35 12 -18 19 -21 29 -12 19 16 17 32
-5 46 -13 8 -22 8 -29 1z"/>
<path d="M14630 1846 c0 -9 5 -16 10 -16 6 0 10 4 10 9 0 6 -4 13 -10 16 -5 3
-10 -1 -10 -9z"/>
<path d="M14625 1390 c-3 -5 -1 -10 4 -10 6 0 11 5 11 10 0 6 -2 10 -4 10 -3
0 -8 -4 -11 -10z"/>
<path d="M14150 730 c0 -5 9 -10 21 -10 11 0 17 5 14 10 -3 6 -13 10 -21 10
-8 0 -14 -4 -14 -10z"/>
<path d="M14100 651 c0 -13 26 -32 33 -24 8 7 -11 33 -24 33 -5 0 -9 -4 -9 -9z"/>
<path d="M6432 1350 c0 -14 2 -19 5 -12 2 6 2 18 0 25 -3 6 -5 1 -5 -13z"/>
<path d="M6322 918 c-15 -15 -16 -38 -2 -38 12 0 23 25 18 40 -2 7 -7 7 -16
-2z"/>
<path d="M1340 9151 c-66 -27 -97 -80 -110 -187 -17 -137 -8 -126 -120 -139
-30 -3 -84 -12 -120 -20 -36 -7 -108 -21 -160 -30 -128 -24 -299 -67 -452
-116 -103 -33 -134 -47 -172 -81 -67 -58 -93 -116 -103 -224 -9 -102 -8 -110
13 -224 20 -105 58 -185 105 -223 31 -24 47 -29 95 -30 36 0 73 6 94 16 99 48
175 96 263 168 18 14 51 35 74 46 77 37 321 15 356 -32 7 -10 10 -188 6 -380
-2 -86 -1 -187 2 -230 3 -39 -12 -241 -22 -295 -12 -67 -29 -471 -30 -715 0
-99 -5 -218 -10 -265 -5 -47 -11 -139 -14 -205 -3 -66 -10 -142 -15 -170 -20
-107 -29 -184 -33 -270 -5 -86 -39 -259 -59 -299 -6 -10 -10 -64 -9 -119 l0
-100 -102 7 c-56 4 -124 9 -150 12 -39 4 -56 0 -85 -18 -51 -31 -68 -53 -108
-135 -32 -68 -34 -78 -34 -178 0 -113 -12 -182 -42 -230 -10 -16 -18 -40 -18
-53 0 -13 -6 -35 -14 -50 -16 -31 -14 -287 2 -319 10 -19 22 -72 42 -183 6
-36 15 -81 20 -100 13 -52 36 -242 45 -366 1 -21 6 -69 10 -106 6 -49 5 -68
-4 -68 -16 0 -14 -27 3 -33 12 -5 15 -33 15 -137 1 -73 3 -142 6 -154 3 -11 2
-70 -3 -129 -4 -60 -5 -110 -2 -112 6 -3 15 -186 13 -265 0 -25 0 -97 0 -160
1 -192 -4 -252 -22 -318 -11 -38 -10 -47 3 -61 9 -10 16 -30 16 -45 0 -25 3
-27 24 -22 46 11 96 -65 96 -146 0 -37 14 -36 103 10 104 52 146 69 192 76 59
8 86 34 116 112 40 102 64 226 105 539 29 229 35 281 39 393 5 127 38 461 58
592 l13 85 30 -3 c72 -8 143 -3 184 13 25 9 56 19 70 21 37 7 160 45 198 60
18 8 38 14 45 14 31 1 186 121 240 186 56 66 87 101 213 244 31 36 64 76 73
91 9 14 35 48 59 75 46 53 111 143 189 262 26 40 75 106 109 147 33 41 73 100
89 132 16 32 49 91 72 131 24 40 43 77 43 83 0 5 9 27 19 47 22 44 50 123 61
172 4 19 14 51 22 70 26 60 38 105 38 147 0 22 9 66 21 99 11 32 24 82 29 109
10 63 37 204 51 269 14 61 13 637 -1 721 -15 92 -30 196 -35 240 -6 57 -20
139 -51 300 -14 77 -30 163 -34 190 -16 99 -42 209 -61 258 -11 27 -24 73 -30
101 -5 28 -21 74 -34 101 -13 28 -40 88 -60 135 -55 129 -76 171 -110 220 -18
25 -48 73 -69 107 -20 33 -67 90 -104 125 -38 34 -100 99 -139 144 -39 44 -85
93 -103 110 -18 16 -52 46 -74 66 -56 50 -154 122 -196 143 -19 10 -42 23 -50
30 -8 7 -46 26 -85 41 -38 15 -73 32 -77 38 -4 6 -8 28 -8 49 0 20 -4 45 -9
55 -6 9 -12 29 -16 44 -6 33 -24 43 -129 73 -81 23 -266 39 -296 26z m589
-422 c111 -61 168 -104 254 -189 53 -51 101 -105 108 -119 8 -14 26 -41 41
-59 16 -18 28 -39 28 -46 0 -7 13 -29 30 -47 16 -19 35 -46 42 -61 7 -15 20
-29 30 -31 10 -3 26 -20 35 -37 10 -18 42 -65 71 -105 28 -40 52 -76 52 -80 0
-3 11 -21 24 -38 13 -18 36 -59 51 -92 15 -33 32 -67 36 -75 11 -18 49 -100
73 -156 10 -22 18 -64 19 -92 2 -35 9 -59 22 -74 11 -13 18 -31 16 -41 -1 -10
3 -25 9 -32 7 -8 16 -50 21 -92 5 -43 13 -89 19 -103 5 -14 14 -59 20 -100 5
-41 17 -120 25 -175 9 -55 18 -122 22 -150 3 -27 7 -259 7 -514 1 -367 -2
-468 -12 -482 -18 -26 -32 -24 -32 6 l0 24 -26 -26 c-25 -24 -27 -25 -36 -8
-8 13 -7 20 5 27 13 7 14 14 7 34 -8 21 -7 24 8 22 15 -3 17 4 13 56 l-3 59
26 -7 c19 -5 26 -3 26 9 0 8 -3 15 -7 15 -5 0 -17 14 -28 30 -24 36 -32 38
-37 8 l-3 -23 -14 23 c-11 20 -10 26 3 41 9 10 16 22 16 28 0 14 26 24 45 17
13 -5 15 1 11 31 -3 21 -11 42 -18 47 -10 6 -10 10 2 18 13 9 11 14 -14 34
-28 23 -28 53 0 42 7 -3 16 -1 19 4 4 6 -3 10 -14 10 -11 0 -22 4 -26 9 -6 11
15 61 27 61 4 0 8 9 8 21 0 14 -5 19 -15 16 -22 -9 -30 12 -10 27 18 13 18 23
-1 114 -4 19 -2 38 5 46 8 10 8 16 -3 26 -9 6 -20 9 -26 5 -13 -8 -13 19 1 68
9 32 13 36 25 26 8 -6 16 -10 18 -8 9 9 9 56 2 97 -7 32 -13 42 -28 42 -13 0
-18 6 -16 18 2 10 12 16 23 15 11 -1 23 3 26 9 10 16 -1 38 -15 32 -16 -6 -38
43 -41 94 -9 142 -20 229 -32 251 -7 14 -13 40 -13 57 0 16 -5 35 -12 42 -6 6
-15 33 -19 59 -9 59 -28 128 -45 168 -46 108 -78 173 -97 193 -11 12 -17 22
-13 22 5 0 -3 15 -16 33 -14 17 -28 46 -31 64 -3 17 -20 54 -37 81 -16 27 -30
58 -30 69 0 12 -15 32 -34 46 -18 15 -36 37 -40 50 -6 26 -41 42 -52 25 -7
-12 -94 70 -94 89 0 31 -74 78 -105 67 -12 -5 -15 2 -15 30 0 23 -5 36 -13 36
-8 0 -22 9 -32 20 -10 11 -29 20 -42 20 -28 0 -29 11 -5 33 17 15 20 15 44
-13 26 -29 70 -41 82 -21 10 15 -59 76 -85 76 -19 0 -23 5 -21 21 2 15 -9 28
-38 48 -44 29 -46 46 -4 38 17 -3 25 -1 21 5 -4 6 -21 13 -39 17 -18 3 -51 15
-74 26 -47 23 -92 18 -58 -7 13 -9 14 -13 3 -13 -20 1 -49 25 -49 42 0 10 -8
13 -29 10 -20 -3 -35 2 -50 17 -12 12 -21 23 -21 26 0 12 68 4 89 -11 17 -12
25 -14 34 -5 9 9 8 14 -3 21 -24 16 -80 29 -96 23 -9 -3 -14 1 -14 12 0 15 7
17 51 11 29 -4 68 -16 88 -27z m-749 -29 c0 -10 -31 -24 -49 -21 -8 1 -17 -3
-21 -9 -5 -7 -16 -9 -29 -5 -12 3 -19 11 -15 16 3 6 8 8 11 5 3 -3 14 1 24 8
21 14 79 19 79 6z m-441 -60 c-43 -22 -119 -34 -119 -20 0 6 6 12 13 14 6 2
35 10 62 19 63 18 91 10 44 -13z m296 0 c3 -5 -1 -10 -9 -10 -9 0 -16 5 -16
10 0 6 4 10 9 10 6 0 13 -4 16 -10z m-168 -26 c-3 -3 -12 -4 -19 -1 -8 3 -5 6
6 6 11 1 17 -2 13 -5z m-477 -74 c0 -4 -11 -5 -25 -2 -27 5 -33 17 -12 25 13
5 37 -10 37 -23z m627 -311 c6 -6 31 -11 57 -11 25 0 46 -4 46 -9 0 -6 -24 -7
-56 -4 -60 6 -74 11 -74 26 0 12 13 12 27 -2z m658 -49 c3 -5 1 -10 -4 -10 -6
0 -11 5 -11 10 0 6 2 10 4 10 3 0 8 -4 11 -10z m65 -60 c0 -5 -4 -10 -10 -10
-5 0 -10 5 -10 10 0 6 5 10 10 10 6 0 10 -4 10 -10z m648 -22 c7 -7 12 -19 12
-27 0 -11 -4 -10 -20 4 -21 19 -26 35 -12 35 4 0 13 -5 20 -12z m-798 -197 c0
-11 -4 -23 -10 -26 -6 -4 -10 5 -10 19 0 14 5 26 10 26 6 0 10 -9 10 -19z
m279 -123 c118 -124 141 -152 141 -176 0 -12 14 -29 35 -42 19 -12 35 -27 35
-34 0 -7 11 -23 24 -35 23 -22 76 -120 76 -141 0 -5 13 -37 29 -72 16 -35 34
-79 40 -98 20 -66 51 -219 56 -277 2 -32 9 -130 15 -218 6 -88 13 -176 15
-195 21 -189 14 -585 -10 -576 -12 4 -15 -9 -13 -59 3 -83 -3 -189 -13 -226
-7 -24 -13 -66 -15 -94 -10 -168 -22 -275 -32 -289 -10 -12 -34 -113 -52 -211
-14 -80 -40 -164 -61 -195 -9 -14 -20 -36 -24 -50 -4 -14 -24 -56 -44 -93 -20
-37 -42 -80 -50 -95 -7 -15 -30 -47 -50 -72 -20 -25 -43 -58 -51 -75 -22 -44
-187 -206 -245 -240 -27 -16 -56 -34 -63 -42 -27 -26 -89 -36 -169 -27 l-78 9
2 60 c0 33 3 76 6 95 3 19 8 67 12 105 16 185 51 428 91 635 39 200 42 221 54
305 7 44 16 96 21 115 13 48 35 197 64 435 28 235 34 309 40 550 2 99 7 214
10 255 3 41 10 135 15 208 22 297 31 404 45 552 8 85 17 210 21 278 5 92 10
122 20 122 8 0 54 -42 103 -92z m-299 5 c0 -7 -4 -13 -9 -13 -10 0 -21 36 -13
45 7 7 22 -15 22 -32z m1000 -36 c0 -18 -2 -19 -10 -7 -13 20 -13 43 0 35 6
-3 10 -16 10 -28z m44 7 c10 -25 -1 -29 -14 -5 -6 12 -7 21 -1 21 5 0 12 -7
15 -16z m-427 -44 c13 -25 23 -52 23 -60 0 -9 5 -21 12 -28 9 -9 9 -15 1 -23
-8 -8 -14 -5 -23 12 -7 13 -23 36 -36 50 -25 26 -47 83 -36 94 15 14 39 -4 59
-45z m493 -94 c0 -16 -14 -36 -26 -36 -16 0 -16 2 -8 24 5 14 34 24 34 12z
m-1462 -378 c1 -18 3 -42 4 -52 2 -10 -3 -21 -11 -24 -10 -3 -12 1 -8 19 4 15
0 30 -11 42 -16 18 -16 20 3 33 10 8 19 14 20 14 1 0 2 -15 3 -32z m-42 -80
c-7 -44 -12 -55 -21 -46 -9 9 7 88 18 88 6 0 7 -16 3 -42z m1610 -43 c5 -16
13 -28 18 -27 17 7 27 -27 14 -48 -17 -27 -28 -25 -56 10 -18 23 -21 33 -13
49 6 11 11 35 12 53 0 35 6 27 25 -37z m-1601 -49 c-44 -45 -51 -26 -7 23 18
22 28 27 30 17 2 -8 -9 -26 -23 -40z m1593 -144 c4 -37 -13 -43 -22 -9 -9 35
-7 49 7 45 6 -3 13 -19 15 -36z m122 -143 c0 -11 -4 -18 -10 -14 -5 3 -7 12
-3 20 7 21 13 19 13 -6z m-1743 -213 c-7 -15 -16 -21 -21 -16 -6 6 -4 15 4 25
19 23 29 18 17 -9z m19 -151 c2 -32 -12 -32 -18 0 -3 15 -1 25 6 25 6 0 12
-11 12 -25z m1694 -267 c0 -13 -23 -5 -28 10 -2 7 2 10 12 6 9 -3 16 -11 16
-16z m-1710 -48 c0 -5 -2 -10 -4 -10 -3 0 -8 5 -11 10 -3 6 -1 10 4 10 6 0 11
-4 11 -10z m1730 -169 c0 -6 -4 -13 -10 -16 -5 -3 -10 1 -10 9 0 9 5 16 10 16
6 0 10 -4 10 -9z m-1735 -21 c3 -5 13 -7 23 -4 11 4 8 -2 -8 -14 -26 -21 -50
-14 -50 14 0 16 26 19 35 4z m1740 -246 c-20 -20 -22 -18 -17 18 4 29 6 30 18
13 11 -14 11 -20 -1 -31z m70 -89 c-4 -38 -12 -81 -19 -95 -7 -14 -16 -45 -20
-69 -4 -25 -16 -63 -27 -85 -12 -23 -32 -63 -46 -90 -19 -36 -24 -57 -19 -84
5 -35 -27 -155 -54 -204 -5 -10 -33 -64 -61 -120 -29 -57 -58 -110 -64 -118
-7 -8 -16 -26 -20 -40 -19 -65 -245 -380 -245 -342 0 6 11 23 24 39 12 15 31
52 40 81 10 29 26 57 37 62 10 6 19 15 19 21 0 5 -11 2 -25 -7 -33 -22 -34 1
-1 27 14 11 26 29 28 41 2 12 16 29 33 38 17 10 32 28 37 47 4 17 15 36 23 43
8 7 15 21 15 31 0 13 7 19 21 19 12 0 19 5 16 13 -2 6 -12 11 -21 11 -20 -2
-21 12 -1 20 8 3 15 13 15 23 0 9 10 27 23 41 21 22 21 24 5 36 -10 7 -18 17
-18 22 0 12 37 44 50 44 6 0 10 5 10 11 0 6 7 18 16 26 12 12 15 32 12 82 l-3
66 43 39 c45 41 51 57 28 78 -12 11 -12 16 2 31 12 13 13 20 4 29 -16 16 -15
38 1 38 15 0 27 23 59 107 19 51 19 54 1 84 l-18 30 28 21 c15 11 27 26 27 34
0 9 5 25 11 36 11 20 12 20 26 -13 11 -25 13 -52 8 -104z m-1911 -285 c-4 -14
-6 -29 -5 -35 0 -5 -6 -1 -14 10 -9 11 -14 29 -11 40 3 11 11 45 18 75 l13 55
3 -60 c2 -32 0 -71 -4 -85z m-47 -102 c-2 -13 -4 -5 -4 17 -1 22 1 32 4 23 2
-10 2 -28 0 -40z m1728 -88 c-3 -5 -11 -10 -16 -10 -6 0 -7 5 -4 10 3 6 11 10
16 10 6 0 7 -4 4 -10z m-2104 -196 c8 -46 7 -48 -20 -39 -26 8 -38 50 -21 70
20 24 34 12 41 -31z m159 39 c0 -5 -7 -16 -14 -26 -12 -15 -15 -15 -26 -3 -6
9 -9 20 -5 26 7 11 45 14 45 3z m1850 -22 c0 -6 -4 -13 -10 -16 -5 -3 -10 1
-10 9 0 9 5 16 10 16 6 0 10 -4 10 -9z m-1789 -39 c-7 -2 -18 1 -23 6 -8 8 -4
9 13 5 13 -4 18 -8 10 -11z m163 -39 c-2 -73 -36 -143 -71 -143 -22 0 -15 19
18 50 28 25 31 32 24 67 -3 21 -14 46 -22 56 -14 14 -14 17 -2 17 8 0 20 -5
27 -12 9 -9 12 -8 12 6 0 9 3 15 8 13 4 -3 7 -27 6 -54z m-148 -59 c16 3 43 2
59 -3 27 -8 28 -9 10 -17 -11 -4 -24 -12 -28 -18 -6 -8 -10 -7 -14 2 -2 6 -18
12 -34 12 -16 0 -29 2 -29 4 0 2 -3 13 -6 23 -4 13 -3 15 4 4 6 -8 20 -11 38
-7z m180 -112 c-12 -12 -18 8 -10 35 l8 28 4 -28 c2 -16 1 -31 -2 -35z m-54
26 c-7 -7 -12 -8 -12 -2 0 14 12 26 19 19 2 -3 -1 -11 -7 -17z m-2 -43 c0 -8
-4 -15 -10 -15 -5 0 -10 7 -10 15 0 8 5 15 10 15 6 0 10 -7 10 -15z m-10 -82
c0 -7 -4 -13 -10 -13 -5 0 -10 8 -10 18 0 9 -3 28 -5 42 -5 22 -3 21 9 -5 9
-16 15 -36 16 -42z m50 -23 c0 -5 -4 -10 -9 -10 -6 0 -13 5 -16 10 -3 6 1 10
9 10 9 0 16 -4 16 -10z m-41 -36 c3 -16 1 -17 -13 -5 -19 16 -21 34 -3 29 6
-3 14 -13 16 -24z m1364 -263 c-48 -76 -245 -301 -264 -301 -5 0 -6 12 -3 28
9 38 14 44 30 38 8 -3 22 4 32 16 9 12 33 39 52 59 51 53 80 96 80 116 0 19
83 96 88 82 2 -5 -5 -22 -15 -38z m-273 -314 c0 -1 -20 -20 -45 -40 -25 -21
-45 -34 -45 -29 0 17 57 72 74 72 9 0 16 -1 16 -3z m-137 -94 c-5 -15 -3 -16
8 -5 22 20 34 14 14 -8 -10 -12 -25 -18 -32 -16 -7 3 -13 1 -13 -4 0 -14 -51
-70 -64 -70 -6 0 -12 9 -12 20 0 12 6 19 16 17 9 -1 14 5 14 16 -2 16 48 67
66 67 5 0 7 -8 3 -17z m-1106 -275 c-3 -8 -6 -5 -6 6 -1 11 2 17 5 13 3 -3 4
-12 1 -19z m613 7 c-14 -17 -85 -21 -74 -4 3 6 17 8 29 5 13 -3 27 -2 30 4 3
5 11 10 17 10 7 0 6 -6 -2 -15z m-386 -98 c-4 -75 -5 -82 -13 -67 -13 21 -9
91 3 87 6 -2 11 -11 10 -20z m25 -459 c-1 -64 -2 -68 -9 -33 -7 36 -3 105 6
105 2 0 3 -33 3 -72z m-18 -145 c-12 -20 -14 -14 -5 12 4 9 9 14 11 11 3 -2 0
-13 -6 -23z m-11 -298 c-7 -19 -30 -141 -36 -193 -3 -31 -13 -40 -24 -22 -9
15 -4 75 9 95 9 16 30 116 30 152 1 17 4 40 8 50 6 14 9 8 14 -22 4 -22 3 -49
-1 -60z m-50 -254 c0 -6 -4 -13 -10 -16 -5 -3 -10 1 -10 9 0 9 5 16 10 16 6 0
10 -4 10 -9z m4 -339 c-4 -15 -13 -34 -21 -43 -8 -9 -18 -33 -24 -52 -12 -45
-33 -67 -64 -67 -13 0 -43 -8 -67 -18 -57 -25 -98 -34 -98 -23 0 5 9 11 19 14
15 4 20 15 23 48 2 35 8 46 28 56 14 7 25 18 25 25 0 12 13 14 40 8 15 -3 55
11 55 20 0 4 -10 11 -22 15 -20 6 -19 8 14 14 20 4 47 15 60 23 30 20 40 14
32 -20z"/>
<path d="M2140 8520 c0 -5 5 -10 11 -10 5 0 7 5 4 10 -3 6 -8 10 -11 10 -2 0
-4 -4 -4 -10z"/>
<path d="M2227 8360 c3 -11 8 -20 12 -20 3 0 12 9 19 20 11 18 10 20 -12 20
-19 0 -23 -4 -19 -20z"/>
<path d="M2350 8225 c0 -15 38 -40 47 -31 7 7 -26 46 -39 46 -4 0 -8 -7 -8
-15z"/>
<path d="M2695 4950 c-3 -5 -1 -10 4 -10 6 0 11 5 11 10 0 6 -2 10 -4 10 -3 0
-8 -4 -11 -10z"/>
<path d="M890 1895 c0 -16 27 -32 37 -21 7 7 -16 36 -28 36 -5 0 -9 -7 -9 -15z"/>
<path d="M3620 3163 c-73 -12 -123 -37 -171 -85 -27 -28 -52 -63 -55 -77 -3
-14 -12 -42 -19 -61 -21 -52 -34 -109 -45 -196 -10 -78 -10 -79 25 -151 19
-40 35 -77 35 -83 0 -16 72 -84 103 -98 56 -24 148 25 177 95 9 22 123 113
141 113 31 0 133 99 162 156 43 84 39 150 -16 234 -65 98 -95 120 -201 144
-67 16 -88 17 -136 9z m186 -106 c37 -19 87 -75 78 -88 -3 -5 -16 -9 -29 -9
-19 0 -26 7 -33 32 -8 33 -64 74 -84 62 -19 -12 -203 -15 -192 -4 29 29 211
33 260 7z"/>
</g>
</svg>
